<svg width="20" height="20" viewBox="0 0 20 20" fill="none" xmlns="http://www.w3.org/2000/svg">
    <path
        d="M10.7071 0.292893C10.3166 -0.0976311 9.68342 -0.0976311 9.29289 0.292893L6.29289 3.29289C5.90237 3.68342 5.90237 4.31658 6.29289 4.70711C6.68342 5.09763 7.31658 5.09763 7.70711 4.70711L9 3.41421V12C9 12.5523 9.44772 13 10 13C10.5523 13 11 12.5523 11 12V3.41421L12.2929 4.70711C12.6834 5.09763 13.3166 5.09763 13.7071 4.70711C14.0976 4.31658 14.0976 3.68342 13.7071 3.29289L10.7071 0.292893Z"
        fill="black" />
    <path
        d="M2.00002 12C2.00002 9.79086 3.79088 8 6.00002 8C6.5523 8 7.00002 7.55228 7.00002 7C7.00002 6.44772 6.5523 6 6.00002 6C2.68631 6 1.72909e-05 8.68629 1.72909e-05 12L8.46942e-06 13.0997C-0.000102991 13.9332 -0.000174761 14.471 0.0738872 14.9386C0.480516 17.506 2.49406 19.5195 5.06141 19.9261C5.52901 20.0002 6.06682 20.0001 6.9003 20H13.0997C13.9332 20.0001 14.471 20.0002 14.9386 19.9261C17.506 19.5195 19.5195 17.506 19.9261 14.9386C20.0002 14.471 20.0001 13.9332 20 13.0997L20 12.0625C20 12.0068 20 11.9718 19.9997 11.9411C19.9676 8.67346 17.3266 6.03237 14.0589 6.00029C14.0294 6 13.9958 6 13.9437 6H13.9375C13.3852 6 12.9375 6.44772 12.9375 7C12.9375 7.55228 13.3852 8 13.9375 8C13.9979 8 14.0209 8.00001 14.0393 8.00019C16.2177 8.02158 17.9784 9.78231 17.9998 11.9607C18 11.9791 18 12.0021 18 12.0625V13C18 13.9672 17.9969 14.3344 17.9508 14.6257C17.6797 16.3373 16.3373 17.6797 14.6258 17.9508C14.3344 17.9969 13.9672 18 13 18H7.00002C6.0328 18 5.66562 17.9969 5.37428 17.9508C3.66271 17.6797 2.32035 16.3373 2.04926 14.6257C2.00312 14.3344 2.00002 13.9672 2.00002 13V12Z"
        fill="black" />
</svg>