<svg width="37" height="36" viewBox="0 0 37 36" fill="none" xmlns="http://www.w3.org/2000/svg">
    <circle cx="18.5" cy="18" r="18" fill="white" />
    <path fill-rule="evenodd" clip-rule="evenodd"
        d="M23.1576 10.3492L23.4515 11.6715C23.8189 11.6981 24.1574 11.7261 24.4656 11.7541C25.1666 11.8178 25.7108 11.8818 26.0825 11.9303C26.2767 11.9556 26.4709 11.9816 26.6641 12.0136C27.2089 12.1044 27.5772 12.6196 27.4864 13.1644C27.3956 13.709 26.8806 14.077 26.336 13.9865L26.3311 13.9856L26.3091 13.9821C26.2888 13.9789 26.257 13.974 26.214 13.9676C26.1281 13.9548 25.9974 13.9361 25.8238 13.9135C25.4767 13.8682 24.9584 13.8072 24.2845 13.7459C22.9365 13.6234 20.9669 13.5 18.5001 13.5C16.0333 13.5 14.0637 13.6234 12.7157 13.7459C12.0418 13.8072 11.5235 13.8682 11.1764 13.9135C11.0028 13.9361 10.8721 13.9548 10.7861 13.9676C10.7432 13.974 10.7114 13.9789 10.691 13.9821L10.6691 13.9856L10.6642 13.9865C10.1195 14.077 9.60453 13.709 9.51375 13.1644C9.42296 12.6196 9.79127 12.1044 10.336 12.0136C10.5293 11.9816 10.7235 11.9556 10.9177 11.9303C11.2893 11.8818 11.8335 11.8178 12.5346 11.7541C12.8427 11.7261 13.1812 11.6981 13.5487 11.6715L13.8425 10.3492C14.1475 8.9766 15.365 8 16.7711 8H20.229C21.6351 8 22.8526 8.9766 23.1576 10.3492ZM15.6231 11.5561L15.7949 10.7831C15.8966 10.3255 16.3024 10 16.7711 10L20.229 10C20.6977 10 21.1036 10.3255 21.2052 10.7831L21.377 11.5561C20.51 11.5217 19.5481 11.5 18.5 11.5M13.4955 15.9052C13.4432 15.3554 12.955 14.9521 12.4052 15.0045C11.8554 15.0569 11.4522 15.545 11.5045 16.0948L12.3321 24.7844C12.4788 26.3241 13.7719 27.5 15.3186 27.5H21.6815C23.2281 27.5 24.5213 26.3241 24.6679 24.7844L25.4955 16.0948C25.5479 15.545 25.1446 15.0569 24.5948 15.0045C24.045 14.9521 23.5569 15.3554 23.5045 15.9052L22.677 24.5948C22.6281 25.108 22.197 25.5 21.6815 25.5H15.3186C14.803 25.5 14.372 25.108 14.3231 24.5948L13.4955 15.9052ZM15.5 18C15.5 17.4477 15.9477 17 16.5 17H20.5C21.0523 17 21.5 17.4477 21.5 18C21.5 18.5523 21.0523 19 20.5 19H16.5C15.9477 19 15.5 18.5523 15.5 18ZM17.5 21C16.9477 21 16.5 21.4477 16.5 22C16.5 22.5523 16.9477 23 17.5 23H19.5C20.0523 23 20.5 22.5523 20.5 22C20.5 21.4477 20.0523 21 19.5 21H17.5Z"
        fill="black" />
</svg>