<svg xmlns="http://www.w3.org/2000/svg" width="70" height="36" viewBox="0 0 70 36" fill="none">
<rect width="70" height="36" rx="18" fill="black"/>
<path d="M22.0836 23.2051C20.6253 23.2051 19.4336 22.7288 18.5084 21.7764C17.5879 20.8239 17.1276 19.5934 17.1276 18.085C17.1276 17.0869 17.3349 16.1982 17.7496 15.4189C18.1689 14.6396 18.7545 14.0335 19.5065 13.6006C20.263 13.1676 21.122 12.9512 22.0836 12.9512C23.7197 12.9512 24.9775 13.4593 25.8571 14.4756C26.0348 14.6852 26.1806 14.9176 26.2946 15.1729C26.4131 15.4235 26.4723 15.6491 26.4723 15.8496C26.4723 16.0911 26.3903 16.2962 26.2262 16.4648C26.0667 16.6335 25.873 16.7178 25.6452 16.7178C25.3261 16.7178 25.0482 16.556 24.8112 16.2324C24.2278 15.2298 23.3232 14.7285 22.0973 14.7285C21.1722 14.7285 20.4157 15.043 19.8278 15.6719C19.2444 16.2962 18.9528 17.1006 18.9528 18.085C18.9528 19.0648 19.2444 19.8669 19.8278 20.4912C20.4157 21.1156 21.1722 21.4277 22.0973 21.4277C23.3095 21.4277 24.2142 20.9242 24.8112 19.917C25.0573 19.598 25.3353 19.4385 25.6452 19.4385C25.873 19.4385 26.0667 19.5228 26.2262 19.6914C26.3903 19.86 26.4723 20.0628 26.4723 20.2998C26.4723 20.4867 26.4176 20.7054 26.3082 20.9561C26.1989 21.2067 26.0599 21.43 25.8913 21.626C24.9843 22.6787 23.7151 23.2051 22.0836 23.2051ZM34.4589 22.1113C33.7115 22.8405 32.7499 23.2051 31.5741 23.2051C30.3983 23.2051 29.4367 22.8405 28.6893 22.1113C27.9419 21.3776 27.5682 20.4206 27.5682 19.2402C27.5682 18.4564 27.7391 17.7637 28.0809 17.1621C28.4227 16.556 28.8967 16.0911 29.5028 15.7676C30.1135 15.4395 30.8039 15.2754 31.5741 15.2754C32.3488 15.2754 33.0393 15.4395 33.6454 15.7676C34.2561 16.0911 34.7323 16.556 35.0741 17.1621C35.4159 17.7637 35.5868 18.4564 35.5868 19.2402C35.5868 20.4206 35.2108 21.3776 34.4589 22.1113ZM29.9198 17.4902C29.496 17.9368 29.2841 18.5202 29.2841 19.2402C29.2841 19.9603 29.496 20.5436 29.9198 20.9902C30.3482 21.4368 30.8996 21.6602 31.5741 21.6602C32.2486 21.6602 32.7977 21.4368 33.2216 20.9902C33.6499 20.5436 33.8641 19.9603 33.8641 19.2402C33.8641 18.5202 33.6499 17.9368 33.2216 17.4902C32.7977 17.0436 32.2486 16.8203 31.5741 16.8203C30.8996 16.8203 30.3482 17.0436 29.9198 17.4902ZM38.0704 24.8115C37.8243 24.8115 37.6215 24.7295 37.462 24.5654C37.3071 24.4059 37.2296 24.2008 37.2296 23.9502V16.1914C37.2296 15.9362 37.3071 15.7288 37.462 15.5693C37.6215 15.4053 37.8243 15.3232 38.0704 15.3232C38.312 15.3232 38.5102 15.4053 38.6652 15.5693C38.8201 15.7288 38.8976 15.9362 38.8976 16.1914V16.3965C39.4855 15.6491 40.3126 15.2754 41.379 15.2754C42.0763 15.2754 42.7029 15.4395 43.2589 15.7676C43.8195 16.0957 44.2592 16.5628 44.5782 17.1689C44.9018 17.7751 45.0636 18.4655 45.0636 19.2402C45.0636 20.4115 44.715 21.3662 44.0177 22.1045C43.3204 22.8382 42.4409 23.2051 41.379 23.2051C40.2989 23.2051 39.4718 22.8542 38.8976 22.1523V23.9502C38.8976 24.2008 38.8201 24.4059 38.6652 24.5654C38.5102 24.7295 38.312 24.8115 38.0704 24.8115ZM39.4855 17.5107C39.0708 17.971 38.8634 18.5452 38.8634 19.2334C38.8634 19.9215 39.0708 20.498 39.4855 20.9629C39.9002 21.4277 40.4379 21.6602 41.0988 21.6602C41.7459 21.6602 42.2814 21.4391 42.7052 20.9971C43.129 20.555 43.3409 19.9694 43.3409 19.2402C43.3409 18.5065 43.129 17.9209 42.7052 17.4834C42.2814 17.0413 41.7459 16.8203 41.0988 16.8203C40.4379 16.8203 39.9002 17.0505 39.4855 17.5107ZM46.1185 16.8408C45.9636 16.5036 45.8861 16.2415 45.8861 16.0547C45.8861 15.8268 45.9613 15.6423 46.1117 15.501C46.2621 15.3597 46.458 15.2891 46.6996 15.2891C46.9274 15.2891 47.1097 15.3506 47.2464 15.4736C47.3832 15.5921 47.5085 15.7881 47.6224 16.0615L49.639 20.3477L51.5121 16.1094C51.6397 15.804 51.7718 15.5921 51.9086 15.4736C52.0453 15.3506 52.2276 15.2891 52.4554 15.2891C52.6833 15.2891 52.8747 15.3597 53.0296 15.501C53.1892 15.6423 53.2689 15.8132 53.2689 16.0137C53.2689 16.2415 53.1983 16.5059 53.057 16.8066L50.2679 22.9111C49.9671 23.5719 49.614 24.0573 49.2084 24.3672C48.8028 24.6771 48.2992 24.832 47.6976 24.832C47.1006 24.832 46.5993 24.6725 46.1937 24.3535C46.0479 24.2396 45.9294 24.0983 45.8382 23.9297C45.7517 23.7656 45.7084 23.6038 45.7084 23.4443C45.7084 23.2256 45.7744 23.0387 45.9066 22.8838C46.0433 22.7243 46.2097 22.6445 46.4056 22.6445C46.556 22.6445 46.6927 22.7038 46.8158 22.8223C47.0482 23.1094 47.3239 23.2529 47.6429 23.2529C47.8754 23.2529 48.0804 23.18 48.2582 23.0342C48.4405 22.8883 48.6068 22.6605 48.7572 22.3506L46.1185 16.8408Z" fill="white"/>
</svg>
