<svg xmlns="http://www.w3.org/2000/svg" width="28" height="28" viewBox="0 0 28 28" fill="none">
  <path
    d="M3.5 7H5.83333H24.5"
    stroke="white"
    strokeWidth="1.75"
    strokeLinecap="round"
    strokeLinejoin="round"
  />
  <path
    d="M22.1663 6.99992V23.3333C22.1663 23.9521 21.9205 24.5456 21.4829 24.9832C21.0453 25.4208 20.4518 25.6666 19.833 25.6666H8.16634C7.5475 25.6666 6.95401 25.4208 6.51643 24.9832C6.07884 24.5456 5.83301 23.9521 5.83301 23.3333V6.99992M9.33301 6.99992V4.66659C9.33301 4.04775 9.57884 3.45425 10.0164 3.01667C10.454 2.57908 11.0475 2.33325 11.6663 2.33325H16.333C16.9518 2.33325 17.5453 2.57908 17.9829 3.01667C18.4205 3.45425 18.6663 4.04775 18.6663 4.66659V6.99992"
    stroke="white"
    strokeWidth="1.75"
    strokeLinecap="round"
    strokeLinejoin="round"
  />
</svg>
