<svg width="37" height="36" viewBox="0 0 37 36" fill="none" xmlns="http://www.w3.org/2000/svg">
    <circle cx="18.5" cy="18" r="18" fill="white" />
    <path
        d="M10.5 18C10.5 15.7909 12.2909 14 14.5 14C15.0523 14 15.5 13.5523 15.5 13C15.5 12.4477 15.0523 12 14.5 12C11.1863 12 8.50002 14.6863 8.50002 18L8.50001 19.0997C8.4999 19.9332 8.49983 21.471 8.57389 21.9386C8.98052 24.506 10.9941 26.5195 13.5614 26.9261C14.029 27.0002 14.5668 27.0001 15.4003 27H21.5997C22.4332 27.0001 22.971 27.0002 23.4386 26.9261C26.006 26.5195 28.0195 24.506 28.4261 21.9386C28.5002 21.471 28.5001 19.9332 28.5 19.0997L28.5 18.0625C28.5 18.0068 28.5 17.9718 28.4997 17.9411C28.4676 14.6735 25.8266 12.0324 22.5589 12.0003C22.5294 12 22.4958 12 22.4437 12H22.4375C21.8852 12 21.4375 12.4477 21.4375 13C21.4375 13.5523 21.8852 14 22.4375 14C22.4979 14 22.5209 14 22.5393 14.0002C24.7177 14.0216 26.4784 15.7823 26.4998 17.9607C26.5 17.9791 26.5 18.0021 26.5 18.0625V19C26.5 19.9672 26.4969 21.3344 26.4508 21.6257C26.1797 23.3373 24.8373 24.6797 23.1258 24.9508C22.8344 24.9969 22.4672 25 21.5 25H15.5C14.5328 25 14.1656 24.9969 13.8743 24.9508C12.1627 24.6797 10.8203 23.3373 10.5493 21.6257C10.5031 21.3344 10.5 19.9672 10.5 19V18Z"
        fill="black" />
    <path
        d="M17.7929 21.7071C18.1834 22.0976 18.8166 22.0976 19.2071 21.7071L22.2071 18.7071C22.5976 18.3166 22.5976 17.6834 22.2071 17.2929C21.8166 16.9024 21.1834 16.9024 20.7929 17.2929L19.5 18.5858L19.5 10C19.5 9.44771 19.0523 9 18.5 9C17.9477 9 17.5 9.44771 17.5 10L17.5 18.5858L16.2071 17.2929C15.8166 16.9024 15.1834 16.9024 14.7929 17.2929C14.4024 17.6834 14.4024 18.3166 14.7929 18.7071L17.7929 21.7071Z"
        fill="black" />
</svg>