<svg xmlns="http://www.w3.org/2000/svg" width="60" height="74" viewBox="0 0 60 74" fill="none">
<rect x="3" width="54" height="54" rx="27" fill="url(#paint0_radial_5350_16349)"/>
<path fill-rule="evenodd" clip-rule="evenodd" d="M11.9678 26.4576C11.9678 16.4093 19.8432 8.96655 29.9998 8.96655C40.1563 8.96655 48.0317 16.4138 48.0317 26.4621C48.0317 36.5104 40.1563 43.9531 29.9998 43.9531C28.174 43.9531 26.4249 43.7097 24.7795 43.2589C24.4594 43.1732 24.1168 43.1958 23.8148 43.331L20.2354 44.9088C19.2978 45.3235 18.2429 44.6564 18.2113 43.633L18.1122 40.4233C18.1032 40.0266 17.9228 39.657 17.6298 39.3955C14.1226 36.258 11.9678 31.7139 11.9678 26.4576ZM24.4681 23.1712L19.1712 31.5741C18.6618 32.3811 19.6536 33.2872 20.4109 32.7102L26.1 28.3915C26.4832 28.0985 27.0151 28.0985 27.4028 28.387L31.6178 31.5471C32.8845 32.4938 34.6877 32.1647 35.5307 30.8258L40.8321 22.4274C41.337 21.6205 40.3452 20.7099 39.5879 21.2869L33.8988 25.6056C33.5156 25.8986 32.9837 25.8986 32.596 25.6101L28.3811 22.45C27.1143 21.5033 25.3111 21.8324 24.4681 23.1712Z" fill="white"/>
<path d="M2.12402 70.9219C2.00358 71.0488 1.85384 71.1123 1.6748 71.1123C1.49577 71.1123 1.34603 71.0505 1.22559 70.9268C1.1084 70.7998 1.0498 70.6403 1.0498 70.4482V64.7158C1.0498 64.4456 1.12305 64.2357 1.26953 64.0859C1.41927 63.9329 1.61133 63.8564 1.8457 63.8564C2.05078 63.8564 2.21517 63.9069 2.33887 64.0078C2.46582 64.1087 2.59277 64.2764 2.71973 64.5107L4.79004 68.4365L6.86035 64.5107C6.99056 64.2731 7.11914 64.1055 7.24609 64.0078C7.37305 63.9069 7.53743 63.8564 7.73926 63.8564C7.97363 63.8564 8.16406 63.9329 8.31055 64.0859C8.46029 64.2357 8.53516 64.4456 8.53516 64.7158V70.4482C8.53516 70.6403 8.47493 70.7998 8.35449 70.9268C8.2373 71.0505 8.08757 71.1123 7.90527 71.1123C7.72624 71.1123 7.5765 71.0488 7.45605 70.9219C7.33887 70.7949 7.28027 70.637 7.28027 70.4482V66.1562L5.61523 69.3545C5.46875 69.6247 5.33854 69.8118 5.22461 69.916C5.11393 70.0202 4.96908 70.0723 4.79004 70.0723C4.611 70.0723 4.46452 70.0202 4.35059 69.916C4.23665 69.8086 4.10807 69.6214 3.96484 69.3545L2.30469 66.1562V70.4482C2.30469 70.637 2.24447 70.7949 2.12402 70.9219ZM12.9932 71.1465C12.1208 71.1465 11.4225 70.8893 10.8984 70.375C10.3743 69.8574 10.1123 69.1657 10.1123 68.2998C10.1123 67.4632 10.363 66.7845 10.8643 66.2637C11.3688 65.7428 12.0231 65.4824 12.8271 65.4824C13.6182 65.4824 14.2513 65.7168 14.7266 66.1855C15.2018 66.6543 15.4395 67.2598 15.4395 68.002C15.4395 68.4512 15.2279 68.6758 14.8047 68.6758H11.3184C11.3639 69.0957 11.5413 69.4294 11.8506 69.6768C12.1598 69.9242 12.5553 70.0479 13.0371 70.0479C13.5872 70.0479 14.012 69.8656 14.3115 69.501C14.4873 69.3415 14.6631 69.2617 14.8389 69.2617C15.1449 69.2617 15.2979 69.4229 15.2979 69.7451C15.2979 69.8916 15.2409 70.0495 15.127 70.2188C14.9284 70.5182 14.6338 70.7477 14.2432 70.9072C13.8558 71.0667 13.4391 71.1465 12.9932 71.1465ZM11.3184 67.7139H14.2529C14.2106 67.3167 14.0576 67.0075 13.7939 66.7861C13.5335 66.5648 13.1966 66.4541 12.7832 66.4541C12.3763 66.4541 12.041 66.568 11.7773 66.7959C11.5137 67.0205 11.3607 67.3265 11.3184 67.7139ZM18.9355 71.1465C18.5254 71.1465 18.1462 71.0879 17.7979 70.9707C17.4528 70.8503 17.181 70.6859 16.9824 70.4775C16.862 70.3669 16.7643 70.2415 16.6895 70.1016C16.6146 69.9583 16.5771 69.8249 16.5771 69.7012C16.5771 69.5579 16.6211 69.4424 16.709 69.3545C16.8001 69.2633 16.9189 69.2178 17.0654 69.2178C17.1663 69.2178 17.2575 69.2422 17.3389 69.291C17.4235 69.3398 17.526 69.4261 17.6465 69.5498C18.0046 69.9372 18.4489 70.1309 18.9795 70.1309C19.266 70.1309 19.4889 70.0771 19.6484 69.9697C19.8079 69.8623 19.8877 69.7093 19.8877 69.5107C19.8877 69.1559 19.6549 68.9346 19.1895 68.8467L18.3496 68.6758C17.8255 68.5716 17.4284 68.3877 17.1582 68.124C16.8913 67.8604 16.7578 67.5267 16.7578 67.123C16.7578 66.6152 16.9466 66.2148 17.3242 65.9219C17.7018 65.6289 18.2113 65.4824 18.8525 65.4824C19.5719 65.4824 20.14 65.6419 20.5566 65.9609C20.7064 66.0749 20.8252 66.2051 20.9131 66.3516C21.001 66.498 21.0449 66.6429 21.0449 66.7861C21.0449 66.9229 20.9993 67.0368 20.9082 67.1279C20.8171 67.2158 20.7048 67.2598 20.5713 67.2598C20.4736 67.2598 20.3776 67.2321 20.2832 67.1768C20.1888 67.1214 20.0765 67.0335 19.9463 66.9131C19.6566 66.6136 19.2839 66.4639 18.8281 66.4639C18.571 66.4639 18.3659 66.516 18.2129 66.6201C18.0632 66.721 17.9883 66.8594 17.9883 67.0352C17.9883 67.3639 18.2357 67.5723 18.7305 67.6602L19.6143 67.8359C20.6201 68.041 21.123 68.5602 21.123 69.3936C21.123 69.9404 20.9277 70.3701 20.5371 70.6826C20.1497 70.9919 19.6159 71.1465 18.9355 71.1465ZM24.7656 71.1465C24.3555 71.1465 23.9762 71.0879 23.6279 70.9707C23.2829 70.8503 23.0111 70.6859 22.8125 70.4775C22.6921 70.3669 22.5944 70.2415 22.5195 70.1016C22.4447 69.9583 22.4072 69.8249 22.4072 69.7012C22.4072 69.5579 22.4512 69.4424 22.5391 69.3545C22.6302 69.2633 22.749 69.2178 22.8955 69.2178C22.9964 69.2178 23.0876 69.2422 23.1689 69.291C23.2536 69.3398 23.3561 69.4261 23.4766 69.5498C23.8346 69.9372 24.279 70.1309 24.8096 70.1309C25.096 70.1309 25.319 70.0771 25.4785 69.9697C25.638 69.8623 25.7178 69.7093 25.7178 69.5107C25.7178 69.1559 25.485 68.9346 25.0195 68.8467L24.1797 68.6758C23.6556 68.5716 23.2585 68.3877 22.9883 68.124C22.7214 67.8604 22.5879 67.5267 22.5879 67.123C22.5879 66.6152 22.7767 66.2148 23.1543 65.9219C23.5319 65.6289 24.0413 65.4824 24.6826 65.4824C25.402 65.4824 25.9701 65.6419 26.3867 65.9609C26.5365 66.0749 26.6553 66.2051 26.7432 66.3516C26.8311 66.498 26.875 66.6429 26.875 66.7861C26.875 66.9229 26.8294 67.0368 26.7383 67.1279C26.6471 67.2158 26.5348 67.2598 26.4014 67.2598C26.3037 67.2598 26.2077 67.2321 26.1133 67.1768C26.0189 67.1214 25.9066 67.0335 25.7764 66.9131C25.4867 66.6136 25.1139 66.4639 24.6582 66.4639C24.401 66.4639 24.196 66.516 24.043 66.6201C23.8932 66.721 23.8184 66.8594 23.8184 67.0352C23.8184 67.3639 24.0658 67.5723 24.5605 67.6602L25.4443 67.8359C26.4502 68.041 26.9531 68.5602 26.9531 69.3936C26.9531 69.9404 26.7578 70.3701 26.3672 70.6826C25.9798 70.9919 25.446 71.1465 24.7656 71.1465ZM31.0303 71.1465C30.1579 71.1465 29.4596 70.8893 28.9355 70.375C28.4115 69.8574 28.1494 69.1657 28.1494 68.2998C28.1494 67.4632 28.4001 66.7845 28.9014 66.2637C29.4059 65.7428 30.0602 65.4824 30.8643 65.4824C31.6553 65.4824 32.2884 65.7168 32.7637 66.1855C33.2389 66.6543 33.4766 67.2598 33.4766 68.002C33.4766 68.4512 33.265 68.6758 32.8418 68.6758H29.3555C29.401 69.0957 29.5785 69.4294 29.8877 69.6768C30.1969 69.9242 30.5924 70.0479 31.0742 70.0479C31.6243 70.0479 32.0492 69.8656 32.3486 69.501C32.5244 69.3415 32.7002 69.2617 32.876 69.2617C33.182 69.2617 33.335 69.4229 33.335 69.7451C33.335 69.8916 33.278 70.0495 33.1641 70.2188C32.9655 70.5182 32.6709 70.7477 32.2803 70.9072C31.8929 71.0667 31.4762 71.1465 31.0303 71.1465ZM29.3555 67.7139H32.29C32.2477 67.3167 32.0947 67.0075 31.8311 66.7861C31.5706 66.5648 31.2337 66.4541 30.8203 66.4541C30.4134 66.4541 30.0781 66.568 29.8145 66.7959C29.5508 67.0205 29.3978 67.3265 29.3555 67.7139ZM35.6055 71.1123C35.4297 71.1123 35.2848 71.0553 35.1709 70.9414C35.0602 70.8242 35.0049 70.6745 35.0049 70.4922V66.1367C35.0049 65.9544 35.0602 65.8063 35.1709 65.6924C35.2848 65.5752 35.4297 65.5166 35.6055 65.5166C35.778 65.5166 35.9196 65.5752 36.0303 65.6924C36.141 65.8063 36.1963 65.9544 36.1963 66.1367V66.2441C36.3623 66 36.5902 65.8128 36.8799 65.6826C37.1696 65.5492 37.5 65.4824 37.8711 65.4824C38.5417 65.4824 39.0739 65.6842 39.4678 66.0879C39.8649 66.4883 40.0635 67.0514 40.0635 67.7773V70.4922C40.0635 70.6712 40.0065 70.8193 39.8926 70.9365C39.7819 71.0537 39.6403 71.1123 39.4678 71.1123C39.292 71.1123 39.1488 71.0537 39.0381 70.9365C38.9274 70.8193 38.8721 70.6712 38.8721 70.4922V67.9873C38.8721 67.5218 38.7614 67.1702 38.54 66.9326C38.3187 66.695 38.0078 66.5762 37.6074 66.5762C37.1745 66.5762 36.8311 66.7129 36.5771 66.9863C36.3232 67.2598 36.1963 67.6211 36.1963 68.0703V70.4922C36.1963 70.6745 36.141 70.8242 36.0303 70.9414C35.9196 71.0553 35.778 71.1123 35.6055 71.1123ZM44.2383 72.3037C43.4212 72.3037 42.7979 72.193 42.3682 71.9717C41.9385 71.7536 41.7236 71.4313 41.7236 71.0049C41.7236 70.7933 41.7822 70.6061 41.8994 70.4434C42.0199 70.2773 42.1826 70.1455 42.3877 70.0479C42.1305 69.8428 42.002 69.5742 42.002 69.2422C42.002 68.8646 42.1826 68.5651 42.5439 68.3438C42.2054 68.0443 42.0361 67.6602 42.0361 67.1914C42.0361 66.6706 42.2428 66.2555 42.6562 65.9463C43.0697 65.637 43.6263 65.4824 44.3262 65.4824C44.847 65.4824 45.2913 65.5703 45.6592 65.7461L46.1426 65.3408C46.2923 65.2171 46.4453 65.1553 46.6016 65.1553C46.7285 65.1553 46.8359 65.1992 46.9238 65.2871C47.0117 65.3717 47.0557 65.471 47.0557 65.585C47.0557 65.7542 46.9678 65.9186 46.792 66.0781L46.4111 66.4102C46.5446 66.638 46.6113 66.8984 46.6113 67.1914C46.6113 67.7155 46.4046 68.1322 45.9912 68.4414C45.5811 68.7474 45.026 68.9004 44.3262 68.9004C43.916 68.9004 43.5563 68.8467 43.2471 68.7393C43.1396 68.8174 43.0859 68.9102 43.0859 69.0176C43.0859 69.1283 43.1283 69.2161 43.2129 69.2812C43.2975 69.3464 43.4147 69.3789 43.5645 69.3789H45.293C45.8529 69.3789 46.2809 69.4928 46.5771 69.7207C46.8734 69.9453 47.0215 70.2708 47.0215 70.6973C47.0215 71.2116 46.7806 71.6071 46.2988 71.8838C45.8171 72.1637 45.1302 72.3037 44.2383 72.3037ZM42.9102 70.8096C42.9102 71.2035 43.3708 71.4004 44.292 71.4004C44.7803 71.4004 45.1514 71.3483 45.4053 71.2441C45.6624 71.1432 45.791 70.9967 45.791 70.8047C45.791 70.4954 45.5469 70.3408 45.0586 70.3408H43.3936C43.3447 70.3408 43.2747 70.3376 43.1836 70.3311C43.0013 70.4548 42.9102 70.6143 42.9102 70.8096ZM43.2422 67.1816C43.2422 67.4388 43.3398 67.6439 43.5352 67.7969C43.7337 67.9466 44.0023 68.0215 44.3408 68.0215C44.6729 68.0215 44.9349 67.9466 45.127 67.7969C45.3223 67.6439 45.4199 67.4388 45.4199 67.1816C45.4199 66.9212 45.3223 66.7161 45.127 66.5664C44.9349 66.4134 44.6729 66.3369 44.3408 66.3369C44.0055 66.3369 43.7386 66.4134 43.54 66.5664C43.3415 66.7161 43.2422 66.9212 43.2422 67.1816ZM51.0107 71.1465C50.1383 71.1465 49.4401 70.8893 48.916 70.375C48.3919 69.8574 48.1299 69.1657 48.1299 68.2998C48.1299 67.4632 48.3805 66.7845 48.8818 66.2637C49.3864 65.7428 50.0407 65.4824 50.8447 65.4824C51.6357 65.4824 52.2689 65.7168 52.7441 66.1855C53.2194 66.6543 53.457 67.2598 53.457 68.002C53.457 68.4512 53.2454 68.6758 52.8223 68.6758H49.3359C49.3815 69.0957 49.5589 69.4294 49.8682 69.6768C50.1774 69.9242 50.5729 70.0479 51.0547 70.0479C51.6048 70.0479 52.0296 69.8656 52.3291 69.501C52.5049 69.3415 52.6807 69.2617 52.8564 69.2617C53.1624 69.2617 53.3154 69.4229 53.3154 69.7451C53.3154 69.8916 53.2585 70.0495 53.1445 70.2188C52.946 70.5182 52.6514 70.7477 52.2607 70.9072C51.8734 71.0667 51.4567 71.1465 51.0107 71.1465ZM49.3359 67.7139H52.2705C52.2282 67.3167 52.0752 67.0075 51.8115 66.7861C51.5511 66.5648 51.2142 66.4541 50.8008 66.4541C50.3939 66.4541 50.0586 66.568 49.7949 66.7959C49.5312 67.0205 49.3783 67.3265 49.3359 67.7139ZM56.1768 68.1338V70.4922C56.1768 70.6745 56.1214 70.8242 56.0107 70.9414C55.9001 71.0553 55.7585 71.1123 55.5859 71.1123C55.4102 71.1123 55.2653 71.0553 55.1514 70.9414C55.0407 70.8242 54.9854 70.6745 54.9854 70.4922V66.1367C54.9854 65.9544 55.0407 65.8063 55.1514 65.6924C55.2653 65.5752 55.4102 65.5166 55.5859 65.5166C55.7585 65.5166 55.9001 65.5752 56.0107 65.6924C56.1214 65.8063 56.1768 65.9544 56.1768 66.1367V66.2051C56.3265 65.974 56.5234 65.7965 56.7676 65.6729C57.0117 65.5459 57.2835 65.4824 57.583 65.4824C58.0029 65.4824 58.3366 65.598 58.584 65.8291C58.7988 66.0342 58.9062 66.2702 58.9062 66.5371C58.9062 66.7324 58.8525 66.8903 58.7451 67.0107C58.6377 67.1312 58.4896 67.1914 58.3008 67.1914C58.1283 67.1914 57.9671 67.1035 57.8174 66.9277C57.6416 66.7292 57.4333 66.6299 57.1924 66.6299C56.9027 66.6299 56.6602 66.7666 56.4648 67.04C56.2728 67.3102 56.1768 67.6748 56.1768 68.1338Z" fill="black"/>
<defs>
<radialGradient id="paint0_radial_5350_16349" cx="0" cy="0" r="1" gradientUnits="userSpaceOnUse" gradientTransform="translate(13.395 53.7102) scale(58.8384 58.8332)">
<stop stop-color="#0099FF"/>
<stop offset="0.6098" stop-color="#A033FF"/>
<stop offset="0.9348" stop-color="#FF5280"/>
<stop offset="1" stop-color="#FF7061"/>
</radialGradient>
</defs>
</svg>
