<svg width="55" height="54" viewBox="0 0 55 54" fill="none" xmlns="http://www.w3.org/2000/svg">
<rect x="0.5" width="54" height="54" rx="27" fill="url(#paint0_radial_10016_35243)"/>
<path d="M27.5 8.96655C37.6565 8.9666 45.5322 16.4144 45.5322 26.4626C45.532 36.5107 37.6563 43.9528 27.5 43.9529C25.6743 43.9529 23.9247 43.7093 22.2793 43.2585C21.9594 43.173 21.6164 43.1956 21.3145 43.3308L17.7354 44.9089C16.7979 45.3234 15.7437 44.6566 15.7119 43.6335L15.6123 40.4236C15.6033 40.0269 15.4229 39.6567 15.1299 39.3953C11.6228 36.2577 9.46779 31.7139 9.46777 26.4578C9.46777 16.4094 17.3435 8.96655 27.5 8.96655ZM38.332 22.4275C38.8369 21.6206 37.8452 20.7098 37.0879 21.2869L31.3994 25.6052C31.0162 25.8982 30.4834 25.8986 30.0957 25.6101L25.8809 22.45C24.6141 21.5035 22.8117 21.8329 21.9688 23.1716L16.6709 31.574C16.1615 32.3808 17.1538 33.2875 17.9111 32.7107L23.6006 28.3914C23.9837 28.0986 24.5158 28.099 24.9033 28.3875L29.1182 31.5476C30.3849 32.494 32.1883 32.1647 33.0312 30.8259L38.332 22.4275Z" fill="white"/>
<defs>
<radialGradient id="paint0_radial_10016_35243" cx="0" cy="0" r="1" gradientUnits="userSpaceOnUse" gradientTransform="translate(10.895 53.7102) scale(58.8384 58.8332)">
<stop stop-color="#0099FF"/>
<stop offset="0.6098" stop-color="#A033FF"/>
<stop offset="0.9348" stop-color="#FF5280"/>
<stop offset="1" stop-color="#FF7061"/>
</radialGradient>
</defs>
</svg>
