<svg width="18" height="20" viewBox="0 0 18 20" fill="none" xmlns="http://www.w3.org/2000/svg">
    <path fill-rule="evenodd" clip-rule="evenodd"
        d="M13.6576 2.84921L13.9515 4.17152C14.3189 4.19812 14.6574 4.22609 14.9656 4.25411C15.6666 4.31784 16.2108 4.3818 16.5825 4.43027C16.7767 4.4556 16.9709 4.48162 17.1641 4.51356C17.7089 4.60435 18.0772 5.11963 17.9864 5.6644C17.8956 6.20904 17.3806 6.57701 16.836 6.48646L16.8311 6.48565L16.8091 6.48215C16.7888 6.47894 16.757 6.47401 16.714 6.46761C16.6281 6.4548 16.4974 6.43611 16.3238 6.41348C15.9767 6.3682 15.4584 6.30716 14.7845 6.24589C13.4365 6.12335 11.4669 6 9.00015 6C6.53331 6 4.56365 6.12335 3.21568 6.24589C2.54177 6.30716 2.02347 6.3682 1.67636 6.41348C1.50282 6.43611 1.37209 6.4548 1.28613 6.46761C1.24315 6.47401 1.21137 6.47894 1.19102 6.48215L1.16911 6.48565L1.16416 6.48646C0.61953 6.57701 0.104527 6.20904 0.0137536 5.6644C-0.0770419 5.11963 0.291273 4.60435 0.836043 4.51356C1.02925 4.48162 1.22351 4.4556 1.41768 4.43027C1.78933 4.3818 2.33353 4.31784 3.03461 4.25411C3.34272 4.2261 3.68118 4.19813 4.04865 4.17153L4.3425 2.84921C4.64753 1.4766 5.86497 0.5 7.27106 0.5H10.729C12.1351 0.5 13.3526 1.4766 13.6576 2.84921ZM6.12309 4.05613L6.29488 3.28307C6.39655 2.82553 6.80236 2.5 7.27106 2.5L10.729 2.5C11.1977 2.5 11.6036 2.82553 11.7052 3.28307L11.877 4.05612C11.01 4.02168 10.0481 4 9.00002 4M3.99553 8.40519C3.94317 7.85539 3.45502 7.45214 2.90522 7.5045C2.35543 7.55687 1.95218 8.04501 2.00454 8.59481L2.83212 17.2844C2.97876 18.8241 4.27193 20 5.81861 20H12.1815C13.7281 20 15.0213 18.8241 15.1679 17.2844L15.9955 8.59481C16.0479 8.04501 15.6446 7.55687 15.0948 7.5045C14.545 7.45214 14.0569 7.85539 14.0045 8.40519L13.177 17.0948C13.1281 17.608 12.697 18 12.1815 18H5.81861C5.30305 18 4.87199 17.608 4.82311 17.0948L3.99553 8.40519ZM6.00002 10.5C6.00002 9.94771 6.44774 9.5 7.00002 9.5H11C11.5523 9.5 12 9.94771 12 10.5C12 11.0523 11.5523 11.5 11 11.5H7.00002C6.44774 11.5 6.00002 11.0523 6.00002 10.5ZM8.00002 13.5C7.44774 13.5 7.00002 13.9477 7.00002 14.5C7.00002 15.0523 7.44774 15.5 8.00002 15.5H10C10.5523 15.5 11 15.0523 11 14.5C11 13.9477 10.5523 13.5 10 13.5H8.00002Z"
        fill="#E52239" />
</svg>