<svg xmlns="http://www.w3.org/2000/svg" width="95" height="15" viewBox="0 0 95 15" fill="none">
<path d="M5.60059 14.2637C3.93066 14.2637 2.5625 13.877 1.49609 13.1035C1.11523 12.8223 0.807617 12.4854 0.573242 12.0928C0.344727 11.7002 0.230469 11.3193 0.230469 10.9502C0.230469 10.6338 0.333008 10.3701 0.538086 10.1592C0.743164 9.94238 0.998047 9.83398 1.30273 9.83398C1.61914 9.83398 1.89746 9.97754 2.1377 10.2646C2.57715 10.8975 3.0752 11.3633 3.63184 11.6621C4.18848 11.9609 4.8916 12.1104 5.74121 12.1104C6.46191 12.1104 7.02148 11.9697 7.41992 11.6885C7.82422 11.4014 8.02637 11.0059 8.02637 10.502C8.02637 10.0508 7.87988 9.70215 7.58691 9.45605C7.2998 9.20996 6.89258 9.03125 6.36523 8.91992L4.05371 8.44531C2.92285 8.21094 2.06445 7.81836 1.47852 7.26758C0.898438 6.71094 0.608398 5.91699 0.608398 4.88574C0.608398 3.72559 1.04199 2.80273 1.90918 2.11719C2.77637 1.42578 3.93359 1.08008 5.38086 1.08008C6.75781 1.08008 7.99414 1.4375 9.08984 2.15234C9.48828 2.4043 9.80176 2.7207 10.0303 3.10156C10.2588 3.47656 10.373 3.84863 10.373 4.21777C10.373 4.54004 10.2822 4.80664 10.1006 5.01758C9.9248 5.22266 9.68457 5.3252 9.37988 5.3252C9.02246 5.3252 8.66211 5.15234 8.29883 4.80664C7.60742 3.74609 6.57324 3.21582 5.19629 3.21582C4.52832 3.21582 3.99512 3.34766 3.59668 3.61133C3.19824 3.86914 2.99902 4.23242 2.99902 4.70117C2.99902 5.17578 3.14551 5.51855 3.43848 5.72949C3.73145 5.93457 4.2002 6.10742 4.84473 6.24805L7.05957 6.74902C7.45215 6.83691 7.79785 6.93652 8.09668 7.04785C8.40137 7.15918 8.70312 7.30859 9.00195 7.49609C9.30078 7.68359 9.54688 7.90039 9.74023 8.14648C9.93359 8.39258 10.0889 8.7002 10.2061 9.06934C10.3291 9.43262 10.3906 9.8457 10.3906 10.3086C10.3906 11.5215 9.9541 12.4854 9.08105 13.2002C8.21387 13.9092 7.05371 14.2637 5.60059 14.2637ZM13.4373 14.1846C13.1209 14.1846 12.8601 14.082 12.655 13.877C12.4558 13.666 12.3562 13.3994 12.3562 13.0771V2.24023C12.3562 1.91797 12.4558 1.6543 12.655 1.44922C12.8601 1.23828 13.1209 1.13281 13.4373 1.13281C13.7478 1.13281 14.0027 1.23828 14.2019 1.44922C14.4011 1.6543 14.5007 1.91797 14.5007 2.24023V5.43945C14.7996 5 15.2097 4.66309 15.7312 4.42871C16.2527 4.18848 16.8474 4.06836 17.5154 4.06836C18.7224 4.06836 19.6804 4.43164 20.3894 5.1582C21.1043 5.87891 21.4617 6.89258 21.4617 8.19922V13.0859C21.4617 13.4082 21.3591 13.6748 21.1541 13.8857C20.9548 14.0967 20.7 14.2021 20.3894 14.2021C20.073 14.2021 19.8152 14.0967 19.616 13.8857C19.4168 13.6748 19.3171 13.4082 19.3171 13.0859V8.57715C19.3171 7.73926 19.1179 7.10645 18.7195 6.67871C18.3211 6.25098 17.7615 6.03711 17.0408 6.03711C16.2615 6.03711 15.6433 6.2832 15.1863 6.77539C14.7293 7.26758 14.5007 7.91797 14.5007 8.72656V13.0771C14.5007 13.3994 14.4011 13.666 14.2019 13.877C14.0027 14.082 13.7478 14.1846 13.4373 14.1846ZM26.4859 14.2373C25.4839 14.2373 24.6812 13.9824 24.0777 13.4727C23.4741 12.9629 23.1724 12.2832 23.1724 11.4336C23.1724 9.93945 24.0952 8.9873 25.9409 8.57715L28.0943 8.10254C28.481 8.02051 28.7476 7.91504 28.8941 7.78613C29.0405 7.65137 29.1138 7.45508 29.1138 7.19727C29.1138 6.81055 28.9644 6.50586 28.6655 6.2832C28.3667 6.06055 27.9536 5.94922 27.4263 5.94922C26.5005 5.94922 25.7241 6.30078 25.0972 7.00391C24.8804 7.20898 24.6958 7.35547 24.5435 7.44336C24.3911 7.53125 24.23 7.5752 24.0601 7.5752C23.8023 7.5752 23.5913 7.50195 23.4273 7.35547C23.2632 7.20312 23.1812 7.00391 23.1812 6.75781C23.1812 6.39453 23.3335 6.03711 23.6382 5.68555C24.0601 5.16406 24.5962 4.76562 25.2466 4.49023C25.897 4.20898 26.6294 4.06836 27.4439 4.06836C28.6626 4.06836 29.6001 4.35547 30.2564 4.92969C30.9185 5.49805 31.2495 6.31836 31.2495 7.39062V11.4951C31.2495 11.9404 31.4253 12.1631 31.7769 12.1631C31.9585 12.1631 32.1255 12.0693 32.2779 11.8818C32.4185 11.7236 32.5737 11.6445 32.7437 11.6445C32.9195 11.6445 33.063 11.7148 33.1743 11.8555C33.2915 11.9961 33.3501 12.1748 33.3501 12.3916C33.3501 12.7314 33.23 13.0596 32.9898 13.376C32.8023 13.6279 32.562 13.833 32.2691 13.9912C31.9761 14.1436 31.6655 14.2197 31.3374 14.2197C30.8862 14.2197 30.4907 14.1143 30.1509 13.9033C29.8111 13.6924 29.5532 13.3936 29.3775 13.0068C29.0435 13.3994 28.6275 13.7041 28.1294 13.9209C27.6314 14.1318 27.0835 14.2373 26.4859 14.2373ZM25.44 11.2842C25.44 11.6299 25.5835 11.9111 25.8706 12.1279C26.1577 12.3389 26.5357 12.4443 27.0044 12.4443C27.6079 12.4443 28.1118 12.2568 28.5161 11.8818C28.9204 11.501 29.1226 11.0293 29.1226 10.4668V9.28906C28.8941 9.48242 28.5454 9.62891 28.0767 9.72852L26.978 9.95703C25.9527 10.168 25.44 10.6104 25.44 11.2842ZM36.2034 8.84082V13.0859C36.2034 13.4141 36.1038 13.6836 35.9046 13.8945C35.7054 14.0996 35.4505 14.2021 35.1399 14.2021C34.8235 14.2021 34.5628 14.0996 34.3577 13.8945C34.1585 13.6836 34.0589 13.4141 34.0589 13.0859V5.24609C34.0589 4.91797 34.1585 4.65137 34.3577 4.44629C34.5628 4.23535 34.8235 4.12988 35.1399 4.12988C35.4505 4.12988 35.7054 4.23535 35.9046 4.44629C36.1038 4.65137 36.2034 4.91797 36.2034 5.24609V5.36914C36.4729 4.95313 36.8274 4.63379 37.2669 4.41113C37.7063 4.18262 38.1956 4.06836 38.7346 4.06836C39.4905 4.06836 40.0911 4.27637 40.5364 4.69238C40.9231 5.06152 41.1165 5.48633 41.1165 5.9668C41.1165 6.31836 41.0198 6.60254 40.8264 6.81934C40.6331 7.03613 40.3665 7.14453 40.0266 7.14453C39.7161 7.14453 39.4261 6.98633 39.1565 6.66992C38.8401 6.3125 38.4651 6.13379 38.0315 6.13379C37.51 6.13379 37.0735 6.37988 36.722 6.87207C36.3763 7.3584 36.2034 8.01465 36.2034 8.84082ZM46.4395 14.2637C44.8692 14.2637 43.6123 13.8008 42.669 12.875C41.7256 11.9434 41.2539 10.6982 41.2539 9.13965C41.2539 7.63379 41.7051 6.41211 42.6075 5.47461C43.5157 4.53711 44.6934 4.06836 46.1407 4.06836C47.5645 4.06836 48.7041 4.49023 49.5596 5.33398C50.4151 6.17773 50.8428 7.26758 50.8428 8.60352C50.8428 9.41211 50.462 9.81641 49.7002 9.81641H43.4248C43.5069 10.5723 43.8262 11.1729 44.3829 11.6182C44.9395 12.0635 45.6514 12.2861 46.5186 12.2861C47.5088 12.2861 48.2735 11.958 48.8125 11.3018C49.1289 11.0146 49.4454 10.8711 49.7618 10.8711C50.3125 10.8711 50.5879 11.1611 50.5879 11.7412C50.5879 12.0049 50.4854 12.2891 50.2803 12.5938C49.9229 13.1328 49.3926 13.5459 48.6895 13.833C47.9922 14.1201 47.2422 14.2637 46.4395 14.2637ZM43.4248 8.08496H48.7071C48.6309 7.37012 48.3555 6.81348 47.8809 6.41504C47.4121 6.0166 46.8057 5.81738 46.0616 5.81738C45.3291 5.81738 44.7256 6.02246 44.251 6.43262C43.7764 6.83691 43.501 7.3877 43.4248 8.08496ZM59.6168 14.2637C58.7261 14.2637 58.108 13.6631 57.7623 12.4619L55.5562 5.58887C55.5035 5.40723 55.4771 5.24316 55.4771 5.09668C55.4771 4.79785 55.5767 4.55469 55.7759 4.36719C55.981 4.17969 56.2418 4.08594 56.5582 4.08594C56.8277 4.08594 57.0533 4.15918 57.2349 4.30566C57.4224 4.44629 57.5484 4.64844 57.6129 4.91211L59.7574 11.7939L61.9986 5.35156C62.1275 4.95898 62.3033 4.65137 62.5259 4.42871C62.7545 4.20605 63.0738 4.09473 63.4839 4.09473C63.9 4.09473 64.2193 4.20605 64.442 4.42871C64.6646 4.64551 64.8433 4.95313 64.9781 5.35156L67.2281 11.8203L69.3638 4.91211C69.4283 4.6543 69.5543 4.45215 69.7418 4.30566C69.9293 4.15918 70.1548 4.08594 70.4185 4.08594C70.7349 4.08594 70.9957 4.17969 71.2007 4.36719C71.4058 4.55469 71.5084 4.79785 71.5084 5.09668C71.5084 5.24902 71.4791 5.41309 71.4205 5.58887L69.2232 12.4619C69.0533 13.0303 68.8189 13.4727 68.5201 13.7891C68.2271 14.1055 67.8375 14.2637 67.3511 14.2637C66.9 14.2637 66.5191 14.1172 66.2086 13.8242C65.9039 13.5254 65.6519 13.0713 65.4527 12.4619L63.4927 6.73145L61.524 12.4619C61.3306 13.0654 61.0816 13.5166 60.7769 13.8154C60.4722 14.1143 60.0855 14.2637 59.6168 14.2637ZM73.8607 14.2021C73.5443 14.2021 73.2835 14.0996 73.0784 13.8945C72.8792 13.6836 72.7796 13.4141 72.7796 13.0859V5.24609C72.7796 4.91797 72.8792 4.65137 73.0784 4.44629C73.2835 4.23535 73.5443 4.12988 73.8607 4.12988C74.1712 4.12988 74.4261 4.23535 74.6253 4.44629C74.8245 4.65137 74.9241 4.91797 74.9241 5.24609V13.0859C74.9241 13.4141 74.8245 13.6836 74.6253 13.8945C74.4261 14.0996 74.1712 14.2021 73.8607 14.2021ZM72.5247 1.63379C72.5247 1.25879 72.6507 0.945313 72.9027 0.693359C73.1605 0.441406 73.4827 0.31543 73.8695 0.31543C74.2562 0.31543 74.5726 0.441406 74.8187 0.693359C75.0706 0.945313 75.1966 1.25879 75.1966 1.63379C75.1966 2.01465 75.0706 2.33105 74.8187 2.58301C74.5726 2.83496 74.2562 2.96094 73.8695 2.96094C73.4827 2.96094 73.1605 2.83496 73.9027 2.58301C72.6507 2.33105 72.5247 2.01465 72.5247 1.63379ZM81.003 14.2637C80.1358 14.2637 79.4239 13.9912 78.8673 13.4463C78.3106 12.8955 78.0323 12.1631 78.0323 11.249V6.27441H76.7139C76.421 6.27441 76.1778 6.18359 75.9845 6.00195C75.797 5.82031 75.7032 5.58594 75.7032 5.29883C75.7032 5.01758 75.797 4.78613 75.9845 4.60449C76.1778 4.42285 76.421 4.33203 76.7139 4.33203H78.0323V2.6709C78.0323 2.34863 78.1319 2.08496 78.3311 1.87988C78.5362 1.66895 78.797 1.56348 79.1134 1.56348C79.4239 1.56348 79.6788 1.66895 79.878 1.87988C80.0772 2.08496 80.1768 2.34863 80.1768 2.6709V4.33203H82.7257C83.0186 4.33203 83.2589 4.42285 83.4464 4.60449C83.6339 4.78613 83.7276 5.01758 83.7276 5.29883C83.7276 5.58594 83.6339 5.82031 83.4464 6.00195C83.2589 6.18359 83.0186 6.27441 82.7257 6.27441H80.1768V10.9502C80.1768 11.3604 80.2735 11.6738 80.4669 11.8906C80.6602 12.1016 80.9268 12.207 81.2667 12.207C81.6007 12.207 81.9727 12.043 82.3829 11.7148C82.6524 11.5039 82.9102 11.3984 83.1563 11.3984C83.4024 11.3984 83.6046 11.4805 83.7628 11.6445C83.921 11.8086 84.0001 12.0166 84.0001 12.2686C84.0001 12.6729 83.8096 13.0479 83.4288 13.3936C83.1475 13.6572 82.7872 13.8682 82.3477 14.0264C81.9141 14.1846 81.4659 14.2637 81.003 14.2637ZM86.3788 14.1846C86.0623 14.1846 85.8016 14.082 85.5965 13.877C85.3973 13.666 85.2977 13.3994 85.2977 13.0771V2.24023C85.2977 1.91797 85.3973 1.6543 85.5965 1.44922C85.8016 1.23828 86.0623 1.13281 86.3788 1.13281C86.6893 1.13281 86.9442 1.23828 87.1434 1.44922C87.3426 1.6543 87.4422 1.91797 87.4422 2.24023V5.43945C87.7411 5 88.1512 4.66309 88.6727 4.42871C89.1942 4.18848 89.7889 4.06836 90.4569 4.06836C91.6639 4.06836 92.6219 4.43164 93.3309 5.1582C94.0457 5.87891 94.4032 6.89258 94.4032 8.19922V13.0859C94.4032 13.4082 94.3006 13.6748 94.0956 13.8857C93.8963 14.0967 93.6414 14.2021 93.3309 14.2021C93.0145 14.2021 92.7567 14.0967 92.5575 13.8857C92.3582 13.6748 92.2586 13.4082 92.2586 13.0859V8.57715C92.2586 7.73926 92.0594 7.10645 91.661 6.67871C91.2625 6.25098 90.703 6.03711 89.9823 6.03711C89.203 6.03711 88.5848 6.2832 88.1278 6.77539C87.6707 7.26758 87.4422 7.91797 87.4422 8.72656V13.0771C87.4422 13.3994 87.3426 13.666 87.1434 13.877C86.9442 14.082 86.6893 14.1846 86.3788 14.1846Z" fill="black"/>
</svg>
