<svg width="40" height="40" viewBox="0 0 40 40" fill="none" xmlns="http://www.w3.org/2000/svg">
    <path
        d="M20 0C16.0444 0 12.1776 1.17298 8.8886 3.37061C5.59962 5.56824 3.03617 8.69181 1.52242 12.3463C0.00866568 16.0009 -0.387401 20.0222 0.384303 23.9018C1.15601 27.7814 3.06082 31.3451 5.85787 34.1421C8.65492 36.9392 12.2186 38.844 16.0982 39.6157C19.9778 40.3874 23.9992 39.9913 27.6537 38.4776C31.3082 36.9638 34.4318 34.4004 36.6294 31.1114C38.827 27.8224 40 23.9556 40 20C40 17.3736 39.4827 14.7728 38.4776 12.3463C37.4725 9.91982 35.9993 7.71504 34.1421 5.85786C32.285 4.00069 30.0802 2.5275 27.6537 1.52241C25.2272 0.517315 22.6264 0 20 0ZM29.42 15.42L19.42 25.42C19.2341 25.6075 19.0129 25.7562 18.7692 25.8578C18.5254 25.9593 18.264 26.0116 18 26.0116C17.736 26.0116 17.4746 25.9593 17.2309 25.8578C16.9871 25.7562 16.7659 25.6075 16.58 25.42L12.58 21.42C12.2034 21.0434 11.9918 20.5326 11.9918 20C11.9918 19.4674 12.2034 18.9566 12.58 18.58C12.9566 18.2034 13.4674 17.9918 14 17.9918C14.5326 17.9918 15.0434 18.2034 15.42 18.58L18 21.18L26.58 12.58C26.9566 12.2034 27.4674 11.9918 28 11.9918C28.5326 11.9918 29.0434 12.2034 29.42 12.58C29.7966 12.9566 30.0082 13.4674 30.0082 14C30.0082 14.5326 29.7966 15.0434 29.42 15.42Z"
        fill="#5FD696" />
</svg>