<svg width="116" height="297" viewBox="0 0 116 297" fill="none" xmlns="http://www.w3.org/2000/svg">
    <path
        d="M40.8649 1.1135C41.6899 -0.0038881 43.1614 0.482088 44.3436 0.421784C43.6007 0.588506 42.4578 0.375669 41.9863 0.925496C42.9257 1.08867 43.9079 0.73749 44.8508 0.989347C45.8008 1.29086 46.683 1.78748 47.458 2.40825C48.3259 3.17092 48.5759 4.37699 49.3367 5.22124C50.2153 5.93069 51.2867 6.39539 52.0618 7.23609C52.9225 8.16547 53.5654 9.28641 54.544 10.1129C55.4976 11.0459 56.8298 11.6595 57.4084 12.9224C57.9692 14.022 58.4978 15.143 59.1085 16.2213C59.0228 18.747 61.7694 20.2085 61.7765 22.6915C61.8551 23.7947 61.7301 24.8979 61.6336 25.9941C61.5158 26.026 61.2765 26.0827 61.155 26.1111C60.7693 27.2675 60.5621 28.541 59.7478 29.4952C59.9871 29.403 60.2336 29.3143 60.4764 29.2292C60.5514 28.4523 60.7086 27.6861 60.9407 26.9412C60.9693 27.7783 60.8479 28.6297 61.0122 29.4597C61.6729 30.5949 62.5587 31.5916 63.1301 32.7835C62.3301 31.8293 61.6765 30.7687 60.8943 29.8038C60.8015 29.8109 60.6157 29.8286 60.5229 29.8393C60.1157 30.2969 60.6014 30.7793 60.8836 31.1589C61.8194 32.2763 63.223 33.0141 63.8516 34.3763C64.4016 36.5117 63.0123 38.4201 62.4729 40.396C62.0301 41.7085 62.9801 42.8897 63.3766 44.0816C62.8051 43.1877 62.3122 42.2476 61.8979 41.2721C61.7158 41.2509 61.3515 41.2083 61.1693 41.1906C60.7622 42.237 60.2943 43.2622 59.7871 44.266C58.7121 44.6527 58.1978 45.7275 57.6013 46.6108C57.6013 46.8343 57.5977 47.2812 57.5977 47.5047H57.3156C57.2441 46.8307 57.162 46.1532 57.0084 45.4934C56.9727 45.3196 56.9013 44.9719 56.8656 44.7981C56.1798 43.7268 55.1762 42.9003 54.5297 41.8042C54.4119 41.9355 54.1797 42.198 54.0619 42.3292C54.0226 42.496 53.9476 42.8365 53.9083 43.0032C53.5369 43.8404 53.6726 44.7414 54.0154 45.5643C53.844 45.3976 53.5047 45.0642 53.3333 44.8974C53.3047 44.7201 53.2475 44.3618 53.219 44.1844C53.0368 43.5708 52.9011 42.9429 52.7547 42.3221C52.5725 41.7262 52.1975 41.2402 51.6653 40.9139C51.601 41.1693 51.4653 41.6872 51.3975 41.9426C50.9832 43.4679 51.2153 45.0642 51.1725 46.625C51.8332 47.0081 52.4761 47.4231 53.1297 47.8239C53.3011 47.8488 53.644 47.902 53.8154 47.9304C54.1762 48.0652 54.5369 48.2 54.9048 48.3312C55.2548 48.4554 55.6084 48.5795 55.962 48.7037C56.4584 48.8456 56.962 48.9733 57.4656 49.0939C57.9192 49.3244 58.3763 49.5408 58.8371 49.7537C60.2407 49.7501 61.5515 50.3319 62.9408 50.4347C65.6945 50.4809 68.4732 50.8604 71.0733 51.7756C73.4877 52.9391 75.4021 54.9008 77.2986 56.7453C77.4986 56.9404 77.6986 57.1604 77.9165 57.3448C78.0201 55.8585 79.1558 54.7979 79.6487 53.457C80.088 52.29 81.1416 51.4812 81.5702 50.3177C81.8774 47.9658 81.2131 45.575 81.6274 43.2373C82.231 41.861 82.3952 40.3747 82.3845 38.8813C80.1023 38.2711 77.7022 38.1044 75.4914 37.2424C74.5378 36.9693 74.452 35.8838 74.1342 35.1105C73.4806 34.9474 72.8055 34.77 72.4412 34.1563C71.6984 32.9964 69.834 33.4291 69.2304 32.1131C68.4625 30.1053 69.1018 27.9451 69.0411 25.8699C68.9518 22.3155 69.1018 18.7576 68.9197 15.2068C68.7804 12.9578 68.0982 10.3683 69.634 8.42088C70.5269 6.93812 72.5127 7.11548 74.0092 7.2219C76.2771 7.46666 78.5879 7.06937 80.8309 7.54825C82.0345 7.79656 82.5381 9.13388 82.5524 10.2335C82.8774 14.8556 82.4238 19.5096 82.9238 24.1246C83.3667 24.9015 84.481 24.788 85.2311 25.1001C86.5204 26.6361 88.1812 27.7961 89.5813 29.2221C90.2277 30.1692 90.4456 31.3965 91.4099 32.1379C91.5207 33.2482 91.4349 34.3656 91.1885 35.4511C91.0563 37.1218 91.0135 38.8848 91.5957 40.4811C92.7993 42.9606 91.3635 45.8694 92.5136 48.3809C93.2814 49.4202 95.1744 49.6118 95.2708 51.1052C95.203 52.7972 96.1244 54.3261 96.0137 56.0217C95.9423 57.4087 97.4423 58.1465 97.7245 59.4342C98.1888 61.3887 97.2066 63.2794 97.1102 65.2198C96.8709 67.2275 97.3673 69.2849 96.853 71.2643C96.4209 73.0911 94.4779 74.0702 94.0386 75.8899C93.66 77.3018 93.31 78.7242 92.8814 80.1254C92.6171 81.633 92.3635 83.1938 91.5099 84.5027C90.0563 86.9822 87.5133 88.4721 85.5204 90.4621C84.0775 91.8669 82.2095 92.7927 80.2416 93.2113C79.6451 96.6379 79.8201 100.118 79.6523 103.573C79.5416 108.184 79.8023 112.828 79.1058 117.407C78.9558 118.173 78.7129 118.922 78.3808 119.635C77.7129 121.281 75.5128 121.015 74.5128 122.38C73.6163 122.622 72.5984 122.863 72.2377 123.831C71.1983 125.53 71.5591 127.552 71.4483 129.429C71.1376 129.947 70.6912 130.365 70.2983 130.819C70.5197 133.139 70.959 135.442 71.8234 137.62C73.9199 144.246 75.5878 151 77.1236 157.779C79.1558 165.352 80.113 173.142 81.3952 180.861C81.6881 183.826 82.3595 186.742 82.4988 189.722C82.8346 193.734 83.2953 197.739 84.3096 201.644C85.0597 203.535 86.1418 205.294 86.7776 207.231C87.3705 209.987 88.2384 212.68 89.0955 215.365C90.8206 219.622 92.2743 223.985 93.5922 228.38C95.6601 236.184 95.8065 244.346 97.7531 252.171C98.1566 253.502 97.1387 254.733 97.3959 256.066C97.9602 260.11 98.4495 264.165 98.9245 268.219C99.7067 268.741 100.553 269.191 101.214 269.872C101.882 270.727 101.946 271.884 102.535 272.788C103.21 273.338 104.078 273.593 104.736 274.175C106.678 276.247 108.679 278.272 110.579 280.39C112.039 282.068 110.657 284.512 111.829 286.31C112.793 287.946 114.179 289.29 115.661 290.464C115.704 292.231 115.847 294.047 115.268 295.753C109.721 296.081 103.47 296.111 97.9709 294.359C96.8887 294.04 95.8137 293.685 94.7672 293.267C92.9421 292.486 90.9135 292.202 89.2241 291.121C89.6134 289.499 89.317 287.804 89.7706 286.2C89.8741 285.853 89.9777 285.509 90.0849 285.168C90.3242 283.639 90.1885 282.079 90.4385 280.553C90.6099 279.957 90.7706 279.361 90.9563 278.776C91.0206 277.871 90.9385 276.97 90.6956 276.098C90.4242 275.129 90.7813 274.126 90.6456 273.146C90.3242 270.816 89.2813 268.677 88.6527 266.424C88.6634 266.616 88.6777 266.815 88.692 267.013C88.1276 265.165 87.4598 263.349 86.8204 261.526C86.324 260.192 85.949 258.769 85.0132 257.663C84.0382 254.53 83.2596 251.327 81.9452 248.312C80.5987 244.74 78.7987 241.356 77.42 237.798C75.3021 231.931 75.0985 225.595 73.0413 219.71C71.7448 215.642 68.9554 212.272 67.5053 208.267C62.623 195.635 56.637 183.472 51.101 171.123C49.1474 166.835 47.2937 162.34 43.9579 158.9C43.6078 158.481 43.0578 158.378 42.5578 158.254C42.1578 163.316 41.9399 168.396 41.4292 173.45C41.0292 178.165 40.7506 182.893 40.7006 187.625C40.5649 193.202 39.6005 198.718 39.5398 204.294C39.4112 206.653 40.8363 208.824 40.3363 211.208C40.172 211.215 39.847 211.232 39.6827 211.243C38.6005 214.613 37.4147 218.072 37.6076 221.661C37.8147 226.748 38.3612 231.814 38.6112 236.901C38.6755 242.459 38.5005 248.025 38.8362 253.576C38.9148 255.084 39.2041 256.638 38.7183 258.11C37.9362 260.735 38.254 263.498 38.279 266.19C38.479 264.076 38.4112 261.951 38.4683 259.834C38.7469 263.2 37.8683 266.651 38.8255 269.95C39.4041 271.107 40.2363 272.143 40.597 273.409C41.197 275.193 42.6435 276.747 42.5292 278.723C42.3864 280.287 41.9328 281.82 41.9506 283.402C41.7828 285.03 42.8685 286.424 42.9042 288.034C43.1971 289.453 43.0757 290.897 42.6828 292.291C42.2685 292.522 41.8506 292.756 41.4363 292.993C41.2649 293.777 41.0934 294.565 40.9434 295.359C37.988 297.275 34.766 296.963 31.2748 296.896C30.6193 296.917 29.6648 296.798 28.7536 296.697C26.9714 296.498 25.1356 296.207 23.6498 295.133C23.8355 294.774 24.0213 294.412 24.2177 294.065C24.2427 293.203 24.257 292.341 24.2713 291.482C25.8606 288.421 27.3214 285.271 28.3536 281.976C28.6143 280.649 28.5572 279.251 29.1465 278.003C29.6572 276.421 31.5252 275.317 31.0359 273.469C29.968 269.12 28.2965 264.927 27.2714 260.564C26.7285 260.398 26.1892 260.234 25.6499 260.078C25.4642 258.386 25.0785 256.719 25.0356 255.016C24.9713 252.101 23.9677 249.327 23.3891 246.492C21.964 239.721 20.714 232.864 20.6354 225.925C20.564 219.185 21.5462 212.478 21.2497 205.734C20.5854 194.092 18.6818 182.461 14.9352 171.39C14.553 170.027 14.1566 168.665 13.5815 167.37C13.4315 167.825 13.2529 168.261 13.0244 168.687C12.9636 168.658 12.8422 168.605 12.7815 168.577C12.7458 169.123 12.7065 169.673 12.6636 170.222C12.2779 171.063 12.0315 171.957 11.9493 172.883C11.7172 173.114 11.485 173.351 11.2529 173.589C9.6135 173.348 7.80627 173.578 6.35621 172.631C5.10258 171.9 3.7561 171.17 2.89534 169.967C2.42032 168.949 2.09174 167.864 1.83458 166.771C1.79887 165.803 2.10245 164.845 1.99173 163.876C1.93816 162.975 1.62744 162.035 2.01674 161.166C2.84892 158.971 3.60609 156.672 3.38108 154.295C3.78467 152.146 3.7561 149.96 3.55966 147.793C2.00959 146.814 1.12384 145.15 0.31666 143.575C-0.465517 141.511 1.78458 139.663 1.02026 137.634C0.555957 136.009 0.72025 134.228 1.49528 132.721C2.30246 131.344 2.06316 129.585 3.18464 128.358C3.04178 126.229 3.1775 124.072 2.74534 121.973C2.43461 120.575 2.18103 119.16 2.1096 117.73C2.22032 116.655 2.7882 115.658 2.70248 114.562C2.49533 109.841 3.34894 105.123 2.90249 100.405C2.80606 98.0391 3.03464 95.6695 3.1525 93.307C3.72395 89.7952 4.19898 86.2551 5.1633 82.8213C5.6919 80.881 5.91691 78.8697 6.60265 76.9719C7.45269 74.6555 7.992 72.2433 8.57774 69.8525C8.88132 67.4474 8.68489 64.8544 9.97423 62.6799C11.1993 60.9347 12.5993 59.2355 14.4637 58.1323C16.2424 56.8943 18.3496 56.2984 20.2961 55.3903C21.3319 54.883 22.5069 54.8227 23.5927 54.4715C25.5678 53.6628 26.9143 51.7508 29.0143 51.1832C31.4394 50.7504 33.1252 48.4057 33.436 46.0858C33.6967 45.1493 31.9573 43.6346 31.593 45.1138C31.3502 45.1529 30.8644 45.2309 30.6251 45.2735C30.5787 44.9719 30.4894 44.376 30.4465 44.0745C30.4073 44.5108 30.3287 45.3799 30.2858 45.8126C29.9215 45.1599 29.5608 44.5073 29.2001 43.8546C29.2179 44.3122 29.2572 45.2203 29.2751 45.6743C28.6358 45.0535 28.0072 44.4469 27.3678 43.8333C26.9321 43.7375 26.4999 43.6382 26.0678 43.5282C26.0356 43.9823 25.9999 44.4399 25.9678 44.8939C25.6499 44.9081 25.0177 44.9365 24.6999 44.9507C24.6356 44.6456 24.5034 44.0355 24.4356 43.7269C24.1927 43.7801 23.6998 43.8829 23.4534 43.9326C23.4784 43.5601 23.532 42.8188 23.557 42.4463C23.382 42.4286 23.0248 42.4002 22.8462 42.3824C22.4283 40.9919 22.0248 39.5943 21.7426 38.1683C21.764 38.484 21.8105 39.1189 21.8319 39.4347C21.4354 40.027 21.0354 40.6407 20.3818 40.9848C20.3354 40.6336 20.239 39.9348 20.1925 39.5836C19.9782 39.8887 19.7318 40.1831 19.4175 40.3924C19.1639 40.6868 18.6568 41.2792 18.4067 41.5737C18.4282 41.1232 18.4782 40.2186 18.5032 39.7645L17.9139 40.8287C17.9853 39.534 18.2282 38.2676 18.6032 37.0296C18.3639 36.9977 17.8853 36.9374 17.646 36.9055C17.8746 36.8664 18.3282 36.7884 18.5532 36.7494C18.6317 34.919 18.1139 32.9786 18.871 31.2334C19.1603 30.5062 19.7675 29.9705 20.2711 29.3888C19.7211 29.5307 18.621 29.818 18.0746 29.9599C18.6567 29.4562 19.2532 28.9667 19.8461 28.47C20.3461 26.6858 20.8283 24.8341 20.5783 22.9682C20.2568 24.0537 20.1532 25.1853 19.9747 26.2991C19.8139 25.1924 19.7782 24.0572 20.0782 22.9718C20.5961 21.0563 20.2104 18.9776 21.0069 17.1294C21.564 15.7886 22.3998 14.5683 23.3998 13.5148C24.3677 12.4931 25.8892 12.298 26.9071 11.3545C27.7964 10.2016 28.1715 8.70111 29.3036 7.72561C30.7608 6.41312 32.1752 4.93391 34.0503 4.22446C34.2146 4.07192 34.3789 3.91585 34.5467 3.76331C35.5646 3.41568 36.5968 3.08578 37.654 2.85166C38.6505 2.14576 39.7434 1.59948 40.8649 1.1135ZM61.2336 33.9151C61.5515 35.2773 62.1515 36.5507 62.6801 37.8419C62.8408 37.1715 63.0694 36.5046 63.1051 35.8129C62.9373 35.0892 62.5372 34.4507 62.1908 33.8051C61.9515 33.8335 61.4729 33.8867 61.2336 33.9151Z"
        fill="#C7C7CC" />
</svg>