<svg width="24" height="24" viewBox="0 0 24 24" fill="none" xmlns="http://www.w3.org/2000/svg">
<path fill-rule="evenodd" clip-rule="evenodd" d="M16.6576 4.34921L16.9515 5.67152C17.3189 5.69812 17.6574 5.72609 17.9656 5.75411C18.6666 5.81784 19.2108 5.8818 19.5825 5.93027C19.7767 5.9556 19.9709 5.98162 20.1641 6.01356C20.7089 6.10435 21.0772 6.61963 20.9864 7.1644C20.8956 7.70904 20.3806 8.07701 19.836 7.98646L19.8311 7.98565L19.8091 7.98215C19.7888 7.97894 19.757 7.97401 19.714 7.96761C19.6281 7.9548 19.4974 7.93611 19.3238 7.91348C18.9767 7.8682 18.4584 7.80716 17.7845 7.74589C16.4365 7.62335 14.4669 7.5 12.0001 7.5C9.53331 7.5 7.56365 7.62335 6.21568 7.74589C5.54177 7.80716 5.02347 7.8682 4.67636 7.91348C4.50282 7.93611 4.37209 7.9548 4.28613 7.96761C4.24315 7.97401 4.21137 7.97894 4.19102 7.98215L4.16911 7.98565L4.16416 7.98646C3.61953 8.07701 3.10453 7.70904 3.01375 7.1644C2.92296 6.61963 3.29127 6.10435 3.83604 6.01356C4.02925 5.98162 4.22351 5.9556 4.41768 5.93027C4.78933 5.8818 5.33353 5.81784 6.03461 5.75411C6.34272 5.7261 6.68118 5.69813 7.04865 5.67153L7.3425 4.34921C7.64753 2.9766 8.86497 2 10.2711 2H13.729C15.1351 2 16.3526 2.9766 16.6576 4.34921ZM9.12309 5.55613L9.29488 4.78307C9.39655 4.32553 9.80236 4 10.2711 4L13.729 4C14.1977 4 14.6036 4.32553 14.7052 4.78307L14.877 5.55612C14.01 5.52168 13.0481 5.5 12 5.5M6.99553 9.90519C6.94317 9.35539 6.45502 8.95214 5.90522 9.0045C5.35543 9.05687 4.95218 9.54501 5.00454 10.0948L5.83212 18.7844C5.97876 20.3241 7.27193 21.5 8.81861 21.5H15.1815C16.7281 21.5 18.0213 20.3241 18.1679 18.7844L18.9955 10.0948C19.0479 9.54501 18.6446 9.05687 18.0948 9.0045C17.545 8.95214 17.0569 9.35539 17.0045 9.90519L16.177 18.5948C16.1281 19.108 15.697 19.5 15.1815 19.5H8.81861C8.30305 19.5 7.87199 19.108 7.82311 18.5948L6.99553 9.90519ZM9.00002 12C9.00002 11.4477 9.44774 11 10 11H14C14.5523 11 15 11.4477 15 12C15 12.5523 14.5523 13 14 13H10C9.44774 13 9.00002 12.5523 9.00002 12ZM11 15C10.4477 15 10 15.4477 10 16C10 16.5523 10.4477 17 11 17H13C13.5523 17 14 16.5523 14 16C14 15.4477 13.5523 15 13 15H11Z" fill="currentColor"/>
</svg>