<svg xmlns="http://www.w3.org/2000/svg" width="57" height="74" viewBox="0 0 57 74" fill="none">
<rect x="1.5" width="54" height="54" rx="27" fill="url(#paint0_linear_5350_16341)"/>
<path d="M12.1221 42.7083L14.4372 34.3015C13.0059 31.8339 12.255 29.0394 12.2629 26.1826C12.2629 17.2309 19.5836 9.95276 28.5702 9.95276C32.9345 9.95276 37.0329 11.6419 40.1066 14.7089C43.1882 17.7758 44.8854 21.8547 44.8776 26.1904C44.8776 35.1422 37.5569 42.4203 28.5624 42.4203H28.5546C25.825 42.4203 23.1423 41.7353 20.7568 40.4432L12.1221 42.7083ZM21.1713 37.5085L21.664 37.8043C23.7445 39.0342 26.13 39.6803 28.5624 39.6881H28.5702C36.0396 39.6881 42.1245 33.6398 42.1245 26.1982C42.1245 22.5942 40.7167 19.2081 38.1591 16.6549C35.6016 14.1017 32.1915 12.7006 28.5702 12.7006C21.1009 12.6928 15.0159 18.741 15.0159 26.1826C15.0159 28.7281 15.7277 31.2112 17.0886 33.3596L17.4093 33.8734L16.0405 38.8474L21.1713 37.5085Z" fill="white"/>
<path d="M12.6929 42.1401L14.9298 34.0213C13.5454 31.6471 12.818 28.946 12.818 26.1904C12.8258 17.5501 19.8885 10.521 28.5701 10.521C32.7858 10.521 36.7355 12.1557 39.7076 15.1136C42.6797 18.0716 44.3143 22.0104 44.3143 26.1982C44.3143 34.8386 37.2439 41.8677 28.5701 41.8677H28.5623C25.9265 41.8677 23.3376 41.206 21.0382 39.9605L12.6929 42.1401Z" fill="url(#paint1_linear_5350_16341)"/>
<path d="M12.1221 42.7083L14.4372 34.3015C13.0059 31.8339 12.255 29.0394 12.2629 26.1826C12.2629 17.2309 19.5836 9.95276 28.5702 9.95276C32.9345 9.95276 37.0329 11.6419 40.1066 14.7089C43.1882 17.7758 44.8854 21.8547 44.8776 26.1904C44.8776 35.1422 37.5569 42.4203 28.5624 42.4203H28.5546C25.825 42.4203 23.1423 41.7353 20.7568 40.4432L12.1221 42.7083ZM21.1713 37.5085L21.664 37.8043C23.7445 39.0342 26.13 39.6803 28.5624 39.6881H28.5702C36.0396 39.6881 42.1245 33.6398 42.1245 26.1982C42.1245 22.5942 40.7167 19.2081 38.1591 16.6549C35.6016 14.1017 32.1915 12.7006 28.5702 12.7006C21.1009 12.6928 15.0159 18.741 15.0159 26.1826C15.0159 28.7281 15.7277 31.2112 17.0886 33.3596L17.4093 33.8734L16.0405 38.8474L21.1713 37.5085Z" fill="url(#paint2_linear_5350_16341)"/>
<path fill-rule="evenodd" clip-rule="evenodd" d="M24.4954 19.3949C24.1904 18.7177 23.8697 18.7021 23.5804 18.6943C23.3457 18.6865 23.072 18.6865 22.7982 18.6865C22.5245 18.6865 22.0865 18.7877 21.7111 19.1925C21.3356 19.5973 20.2876 20.5781 20.2876 22.5786C20.2876 24.5713 21.7502 26.5018 21.9535 26.7742C22.1569 27.0467 24.777 31.2734 28.9145 32.9003C32.3558 34.2548 33.0598 33.9823 33.8028 33.9123C34.5458 33.8422 36.2117 32.9315 36.5559 31.9818C36.8922 31.0321 36.8922 30.2226 36.7905 30.0513C36.6888 29.8801 36.4151 29.7789 36.0084 29.5765C35.6017 29.3741 33.5994 28.3933 33.224 28.2532C32.8486 28.1209 32.5748 28.0508 32.3089 28.4556C32.0352 28.8604 31.253 29.7711 31.0184 30.0436C30.7838 30.316 30.5413 30.3471 30.1346 30.1447C29.7279 29.9424 28.4139 29.5142 26.8575 28.1287C25.6452 27.0545 24.8239 25.7234 24.5893 25.3186C24.3547 24.9138 24.5658 24.6959 24.7692 24.4935C24.9491 24.3144 25.1759 24.0186 25.3793 23.7851C25.5826 23.5516 25.653 23.3803 25.786 23.1079C25.9189 22.8355 25.8564 22.6019 25.7547 22.3995C25.653 22.2049 24.8552 20.1966 24.4954 19.3949Z" fill="white"/>
<path d="M2.98828 71.1367C2.70182 71.1367 2.4528 71.0309 2.24121 70.8193C2.02962 70.6045 1.88314 70.318 1.80176 69.96L0.488281 64.7842C0.465495 64.6963 0.454102 64.6019 0.454102 64.501C0.454102 64.3187 0.519206 64.1657 0.649414 64.042C0.779622 63.9183 0.9375 63.8564 1.12305 63.8564C1.28581 63.8564 1.42415 63.9036 1.53809 63.998C1.65527 64.0892 1.72852 64.2096 1.75781 64.3594L3.01758 69.7061L4.41406 64.7939C4.48893 64.514 4.61263 64.2878 4.78516 64.1152C4.96094 63.9427 5.17253 63.8564 5.41992 63.8564C5.67057 63.8564 5.88216 63.9427 6.05469 64.1152C6.22721 64.2878 6.35091 64.514 6.42578 64.7939L7.82227 69.7012L9.08203 64.3594C9.11458 64.2064 9.18783 64.0843 9.30176 63.9932C9.41895 63.902 9.55892 63.8564 9.72168 63.8564C9.90723 63.8564 10.0651 63.9183 10.1953 64.042C10.3255 64.1657 10.3906 64.3187 10.3906 64.501C10.3906 64.5856 10.3792 64.68 10.3564 64.7842L9.03809 69.9551C8.95671 70.3164 8.81022 70.6045 8.59863 70.8193C8.3903 71.0309 8.14128 71.1367 7.85156 71.1367C7.56185 71.1367 7.31283 71.026 7.10449 70.8047C6.89941 70.5833 6.74805 70.279 6.65039 69.8916L5.41992 65.4824L4.18945 69.8916C4.09505 70.279 3.94368 70.5833 3.73535 70.8047C3.53027 71.026 3.28125 71.1367 2.98828 71.1367ZM12.4414 71.1025C12.2656 71.1025 12.1208 71.0456 12.0068 70.9316C11.8962 70.8145 11.8408 70.6663 11.8408 70.4873V64.4668C11.8408 64.2878 11.8962 64.1413 12.0068 64.0273C12.1208 63.9102 12.2656 63.8516 12.4414 63.8516C12.6139 63.8516 12.7555 63.9102 12.8662 64.0273C12.9769 64.1413 13.0322 64.2878 13.0322 64.4668V66.2441C13.1982 66 13.4261 65.8128 13.7158 65.6826C14.0055 65.5492 14.3359 65.4824 14.707 65.4824C15.3776 65.4824 15.9098 65.6842 16.3037 66.0879C16.7008 66.4883 16.8994 67.0514 16.8994 67.7773V70.4922C16.8994 70.6712 16.8424 70.8193 16.7285 70.9365C16.6178 71.0537 16.4762 71.1123 16.3037 71.1123C16.1279 71.1123 15.9847 71.0537 15.874 70.9365C15.7633 70.8193 15.708 70.6712 15.708 70.4922V67.9873C15.708 67.5218 15.5973 67.1702 15.376 66.9326C15.1546 66.695 14.8438 66.5762 14.4434 66.5762C14.0104 66.5762 13.667 66.7129 13.4131 66.9863C13.1592 67.2598 13.0322 67.6211 13.0322 68.0703V70.4873C13.0322 70.6663 12.9769 70.8145 12.8662 70.9316C12.7555 71.0456 12.6139 71.1025 12.4414 71.1025ZM20.3906 71.1318C19.834 71.1318 19.388 70.9902 19.0527 70.707C18.7174 70.4238 18.5498 70.0462 18.5498 69.5742C18.5498 68.7441 19.0625 68.2152 20.0879 67.9873L21.2842 67.7236C21.499 67.6781 21.6471 67.6195 21.7285 67.5479C21.8099 67.473 21.8506 67.3639 21.8506 67.2207C21.8506 67.0059 21.7676 66.8366 21.6016 66.7129C21.4355 66.5892 21.2061 66.5273 20.9131 66.5273C20.3988 66.5273 19.9674 66.7227 19.6191 67.1133C19.4987 67.2272 19.3962 67.3086 19.3115 67.3574C19.2269 67.4062 19.1374 67.4307 19.043 67.4307C18.8997 67.4307 18.7826 67.39 18.6914 67.3086C18.6003 67.224 18.5547 67.1133 18.5547 66.9766C18.5547 66.7747 18.6393 66.5762 18.8086 66.3809C19.043 66.0911 19.3408 65.8698 19.7021 65.7168C20.0635 65.5605 20.4704 65.4824 20.9229 65.4824C21.5999 65.4824 22.1208 65.6419 22.4854 65.9609C22.8532 66.2767 23.0371 66.7324 23.0371 67.3281V69.6084C23.0371 69.8558 23.1348 69.9795 23.3301 69.9795C23.431 69.9795 23.5238 69.9274 23.6084 69.8232C23.6865 69.7354 23.7728 69.6914 23.8672 69.6914C23.9648 69.6914 24.0446 69.7305 24.1064 69.8086C24.1715 69.8867 24.2041 69.986 24.2041 70.1064C24.2041 70.2952 24.1374 70.4775 24.0039 70.6533C23.8997 70.7933 23.7663 70.9072 23.6035 70.9951C23.4408 71.0798 23.2682 71.1221 23.0859 71.1221C22.8353 71.1221 22.6156 71.0635 22.4268 70.9463C22.238 70.8291 22.0947 70.6631 21.9971 70.4482C21.8115 70.6663 21.5804 70.8356 21.3037 70.9561C21.027 71.0732 20.7227 71.1318 20.3906 71.1318ZM19.8096 69.4912C19.8096 69.6833 19.8893 69.8395 20.0488 69.96C20.2083 70.0771 20.4183 70.1357 20.6787 70.1357C21.014 70.1357 21.2939 70.0316 21.5186 69.8232C21.7432 69.6117 21.8555 69.3496 21.8555 69.0371V68.3828C21.7285 68.4902 21.5348 68.5716 21.2744 68.627L20.6641 68.7539C20.0944 68.8711 19.8096 69.1169 19.8096 69.4912ZM27.3193 71.1465C26.8376 71.1465 26.4421 70.9951 26.1328 70.6924C25.8236 70.3864 25.6689 69.9795 25.6689 69.4717V66.708H24.9365C24.7738 66.708 24.6387 66.6576 24.5312 66.5566C24.4271 66.4557 24.375 66.3255 24.375 66.166C24.375 66.0098 24.4271 65.8812 24.5312 65.7803C24.6387 65.6794 24.7738 65.6289 24.9365 65.6289H25.6689V64.7061C25.6689 64.527 25.7243 64.3805 25.835 64.2666C25.9489 64.1494 26.0938 64.0908 26.2695 64.0908C26.4421 64.0908 26.5837 64.1494 26.6943 64.2666C26.805 64.3805 26.8604 64.527 26.8604 64.7061V65.6289H28.2764C28.4391 65.6289 28.5726 65.6794 28.6768 65.7803C28.7809 65.8812 28.833 66.0098 28.833 66.166C28.833 66.3255 28.7809 66.4557 28.6768 66.5566C28.5726 66.6576 28.4391 66.708 28.2764 66.708H26.8604V69.3057C26.8604 69.5335 26.9141 69.7077 27.0215 69.8281C27.1289 69.9453 27.277 70.0039 27.4658 70.0039C27.6514 70.0039 27.8581 69.9128 28.0859 69.7305C28.2357 69.6133 28.3789 69.5547 28.5156 69.5547C28.6523 69.5547 28.7646 69.6003 28.8525 69.6914C28.9404 69.7826 28.9844 69.8981 28.9844 70.0381C28.9844 70.2627 28.8786 70.471 28.667 70.6631C28.5107 70.8096 28.3105 70.9268 28.0664 71.0146C27.8255 71.1025 27.5765 71.1465 27.3193 71.1465ZM32.373 71.1465C31.9629 71.1465 31.5837 71.0879 31.2354 70.9707C30.8903 70.8503 30.6185 70.6859 30.4199 70.4775C30.2995 70.3669 30.2018 70.2415 30.127 70.1016C30.0521 69.9583 30.0146 69.8249 30.0146 69.7012C30.0146 69.5579 30.0586 69.4424 30.1465 69.3545C30.2376 69.2633 30.3564 69.2178 30.5029 69.2178C30.6038 69.2178 30.695 69.2422 30.7764 69.291C30.861 69.3398 30.9635 69.4261 31.084 69.5498C31.4421 69.9372 31.8864 70.1309 32.417 70.1309C32.7035 70.1309 32.9264 70.0771 33.0859 69.9697C33.2454 69.8623 33.3252 69.7093 33.3252 69.5107C33.3252 69.1559 33.0924 68.9346 32.627 68.8467L31.7871 68.6758C31.263 68.5716 30.8659 68.3877 30.5957 68.124C30.3288 67.8604 30.1953 67.5267 30.1953 67.123C30.1953 66.6152 30.3841 66.2148 30.7617 65.9219C31.1393 65.6289 31.6488 65.4824 32.29 65.4824C33.0094 65.4824 33.5775 65.6419 33.9941 65.9609C34.1439 66.0749 34.2627 66.2051 34.3506 66.3516C34.4385 66.498 34.4824 66.6429 34.4824 66.7861C34.4824 66.9229 34.4368 67.0368 34.3457 67.1279C34.2546 67.2158 34.1423 67.2598 34.0088 67.2598C33.9111 67.2598 33.8151 67.2321 33.7207 67.1768C33.6263 67.1214 33.514 67.0335 33.3838 66.9131C33.0941 66.6136 32.7214 66.4639 32.2656 66.4639C32.0085 66.4639 31.8034 66.516 31.6504 66.6201C31.5007 66.721 31.4258 66.8594 31.4258 67.0352C31.4258 67.3639 31.6732 67.5723 32.168 67.6602L33.0518 67.8359C34.0576 68.041 34.5605 68.5602 34.5605 69.3936C34.5605 69.9404 34.3652 70.3701 33.9746 70.6826C33.5872 70.9919 33.0534 71.1465 32.373 71.1465ZM36.0742 71.127C35.9115 71.127 35.7699 71.0684 35.6494 70.9512C35.529 70.834 35.4688 70.694 35.4688 70.5312C35.4688 70.4043 35.498 70.266 35.5566 70.1162L37.7295 64.8135C37.8695 64.4652 38.0306 64.2129 38.2129 64.0566C38.3984 63.9004 38.641 63.8223 38.9404 63.8223C39.2399 63.8223 39.4808 63.9004 39.6631 64.0566C39.8486 64.2129 40.0114 64.4652 40.1514 64.8135L42.3242 70.1162C42.3861 70.2627 42.417 70.401 42.417 70.5312C42.417 70.694 42.3568 70.834 42.2363 70.9512C42.1159 71.0684 41.9743 71.127 41.8115 71.127C41.4958 71.127 41.2874 70.9919 41.1865 70.7217L40.6543 69.3691H37.2314L36.6992 70.7217C36.5918 70.9919 36.3835 71.127 36.0742 71.127ZM37.7051 68.168H40.1807L38.9453 65.0283L37.7051 68.168ZM44.248 72.2939C44.0723 72.2939 43.9274 72.2354 43.8135 72.1182C43.7028 72.0042 43.6475 71.8577 43.6475 71.6787V66.1367C43.6475 65.9544 43.7028 65.8063 43.8135 65.6924C43.9274 65.5752 44.0723 65.5166 44.248 65.5166C44.4206 65.5166 44.5622 65.5752 44.6729 65.6924C44.7835 65.8063 44.8389 65.9544 44.8389 66.1367V66.2832C45.2588 65.7493 45.8496 65.4824 46.6113 65.4824C47.1094 65.4824 47.557 65.5996 47.9541 65.834C48.3545 66.0684 48.6686 66.402 48.8965 66.835C49.1276 67.2679 49.2432 67.7611 49.2432 68.3145C49.2432 69.151 48.9941 69.833 48.4961 70.3604C47.998 70.8844 47.3698 71.1465 46.6113 71.1465C45.8398 71.1465 45.249 70.8958 44.8389 70.3945V71.6787C44.8389 71.8577 44.7835 72.0042 44.6729 72.1182C44.5622 72.2354 44.4206 72.2939 44.248 72.2939ZM45.2588 67.0791C44.9626 67.4079 44.8145 67.818 44.8145 68.3096C44.8145 68.8011 44.9626 69.2129 45.2588 69.5449C45.555 69.877 45.9391 70.043 46.4111 70.043C46.8734 70.043 47.2559 69.8851 47.5586 69.5693C47.8613 69.2536 48.0127 68.8353 48.0127 68.3145C48.0127 67.7904 47.8613 67.3721 47.5586 67.0596C47.2559 66.7438 46.8734 66.5859 46.4111 66.5859C45.9391 66.5859 45.555 66.7503 45.2588 67.0791ZM51.3672 72.2939C51.1914 72.2939 51.0465 72.2354 50.9326 72.1182C50.8219 72.0042 50.7666 71.8577 50.7666 71.6787V66.1367C50.7666 65.9544 50.8219 65.8063 50.9326 65.6924C51.0465 65.5752 51.1914 65.5166 51.3672 65.5166C51.5397 65.5166 51.6813 65.5752 51.792 65.6924C51.9027 65.8063 51.958 65.9544 51.958 66.1367V66.2832C52.3779 65.7493 52.9688 65.4824 53.7305 65.4824C54.2285 65.4824 54.6761 65.5996 55.0732 65.834C55.4736 66.0684 55.7878 66.402 56.0156 66.835C56.2467 67.2679 56.3623 67.7611 56.3623 68.3145C56.3623 69.151 56.1133 69.833 55.6152 70.3604C55.1172 70.8844 54.4889 71.1465 53.7305 71.1465C52.959 71.1465 52.3682 70.8958 51.958 70.3945V71.6787C51.958 71.8577 51.9027 72.0042 51.792 72.1182C51.6813 72.2354 51.5397 72.2939 51.3672 72.2939ZM52.3779 67.0791C52.0817 67.4079 51.9336 67.818 51.9336 68.3096C51.9336 68.8011 52.0817 69.2129 52.3779 69.5449C52.6742 69.877 53.0583 70.043 53.5303 70.043C53.9925 70.043 54.375 69.8851 54.6777 69.5693C54.9805 69.2536 55.1318 68.8353 55.1318 68.3145C55.1318 67.7904 54.9805 67.3721 54.6777 67.0596C54.375 66.7438 53.9925 66.5859 53.5303 66.5859C53.0583 66.5859 52.6742 66.7503 52.3779 67.0791Z" fill="black"/>
<defs>
<linearGradient id="paint0_linear_5350_16341" x1="28.4986" y1="53.9973" x2="28.4986" y2="-0.00188932" gradientUnits="userSpaceOnUse">
<stop stop-color="#20B038"/>
<stop offset="1" stop-color="#60D66A"/>
</linearGradient>
<linearGradient id="paint1_linear_5350_16341" x1="28.5028" y1="42.1385" x2="28.5028" y2="10.5199" gradientUnits="userSpaceOnUse">
<stop stop-color="#20B038"/>
<stop offset="1" stop-color="#60D66A"/>
</linearGradient>
<linearGradient id="paint2_linear_5350_16341" x1="28.503" y1="42.7052" x2="28.503" y2="9.95276" gradientUnits="userSpaceOnUse">
<stop stop-color="#F9F9F9"/>
<stop offset="1" stop-color="white"/>
</linearGradient>
</defs>
</svg>
