<svg width="54" height="54" viewBox="0 0 54 54" fill="none" xmlns="http://www.w3.org/2000/svg">
<rect width="54" height="54" rx="27" fill="url(#paint0_linear_10016_35239)"/>
<path d="M10.6221 42.7082L12.9372 34.3014C11.5059 31.8338 10.755 29.0393 10.7629 26.1825C10.7629 17.2308 18.0836 9.95264 27.0702 9.95264C31.4345 9.95264 35.5329 11.6418 38.6066 14.7087C41.6882 17.7757 43.3854 21.8546 43.3776 26.1903C43.3776 35.142 36.0569 42.4202 27.0624 42.4202H27.0546C24.325 42.4202 21.6423 41.7352 19.2568 40.443L10.6221 42.7082ZM19.6713 37.5084L20.164 37.8042C22.2445 39.0341 24.63 39.6802 27.0624 39.688H27.0702C34.5396 39.688 40.6245 33.6397 40.6245 26.1981C40.6245 22.594 39.2167 19.208 36.6591 16.6548C34.1016 14.1016 30.6915 12.7004 27.0702 12.7004C19.6009 12.6926 13.5159 18.7409 13.5159 26.1825C13.5159 28.7279 14.2277 31.2111 15.5886 33.3595L15.9093 33.8732L14.5405 38.8473L19.6713 37.5084Z" fill="white"/>
<path d="M11.1934 42.1401L13.4302 34.0213C12.0459 31.6471 11.3185 28.946 11.3185 26.1904C11.3263 17.5501 18.3889 10.521 27.0706 10.521C31.2862 10.521 35.236 12.1557 38.2081 15.1136C41.1802 18.0716 42.8148 22.0104 42.8148 26.1982C42.8148 34.8386 35.7444 41.8677 27.0706 41.8677H27.0627C24.427 41.8677 21.8381 41.206 19.5387 39.9605L11.1934 42.1401Z" fill="url(#paint1_linear_10016_35239)"/>
<path d="M10.6221 42.7082L12.9372 34.3014C11.5059 31.8338 10.755 29.0393 10.7629 26.1825C10.7629 17.2308 18.0836 9.95264 27.0702 9.95264C31.4345 9.95264 35.5329 11.6418 38.6066 14.7087C41.6882 17.7757 43.3854 21.8546 43.3776 26.1903C43.3776 35.142 36.0569 42.4202 27.0624 42.4202H27.0546C24.325 42.4202 21.6423 41.7352 19.2568 40.443L10.6221 42.7082ZM19.6713 37.5084L20.164 37.8042C22.2445 39.0341 24.63 39.6802 27.0624 39.688H27.0702C34.5396 39.688 40.6245 33.6397 40.6245 26.1981C40.6245 22.594 39.2167 19.208 36.6591 16.6548C34.1016 14.1016 30.6915 12.7004 27.0702 12.7004C19.6009 12.6926 13.5159 18.7409 13.5159 26.1825C13.5159 28.7279 14.2277 31.2111 15.5886 33.3595L15.9093 33.8732L14.5405 38.8473L19.6713 37.5084Z" fill="url(#paint2_linear_10016_35239)"/>
<path fill-rule="evenodd" clip-rule="evenodd" d="M22.995 19.3949C22.6899 18.7177 22.3693 18.7021 22.0799 18.6943C21.8452 18.6865 21.5715 18.6865 21.2977 18.6865C21.024 18.6865 20.586 18.7877 20.2106 19.1925C19.8352 19.5973 18.7871 20.5781 18.7871 22.5786C18.7871 24.5713 20.2497 26.5018 20.453 26.7742C20.6564 27.0467 23.2765 31.2734 27.414 32.9003C30.8554 34.2548 31.5593 33.9823 32.3023 33.9123C33.0453 33.8422 34.7112 32.9315 35.0554 31.9818C35.3917 31.0321 35.3917 30.2226 35.29 30.0513C35.1883 29.8801 34.9146 29.7789 34.5079 29.5765C34.1012 29.3741 32.0989 28.3933 31.7235 28.2532C31.3481 28.1209 31.0743 28.0508 30.8084 28.4556C30.5347 28.8604 29.7526 29.7711 29.5179 30.0436C29.2833 30.316 29.0408 30.3471 28.6341 30.1447C28.2274 29.9424 26.9134 29.5142 25.357 28.1287C24.1447 27.0545 23.3235 25.7234 23.0888 25.3186C22.8542 24.9138 23.0654 24.6959 23.2687 24.4935C23.4486 24.3144 23.6754 24.0186 23.8788 23.7851C24.0821 23.5516 24.1525 23.3803 24.2855 23.1079C24.4184 22.8355 24.3559 22.6019 24.2542 22.3995C24.1525 22.2049 23.3547 20.1966 22.995 19.3949Z" fill="white"/>
<defs>
<linearGradient id="paint0_linear_10016_35239" x1="26.9986" y1="53.9973" x2="26.9986" y2="-0.00188932" gradientUnits="userSpaceOnUse">
<stop stop-color="#20B038"/>
<stop offset="1" stop-color="#60D66A"/>
</linearGradient>
<linearGradient id="paint1_linear_10016_35239" x1="27.0033" y1="42.1385" x2="27.0033" y2="10.5199" gradientUnits="userSpaceOnUse">
<stop stop-color="#20B038"/>
<stop offset="1" stop-color="#60D66A"/>
</linearGradient>
<linearGradient id="paint2_linear_10016_35239" x1="27.003" y1="42.7051" x2="27.003" y2="9.95264" gradientUnits="userSpaceOnUse">
<stop stop-color="#F9F9F9"/>
<stop offset="1" stop-color="white"/>
</linearGradient>
</defs>
</svg>
