<svg width="54" height="56" viewBox="0 0 54 56" fill="none" xmlns="http://www.w3.org/2000/svg">
    <path
        d="M22.5814 3.38503C25.5651 1.68314 29.2411 1.68314 32.2248 3.38503L47.089 11.8635C50.0727 13.5654 51.9107 16.7106 51.9107 20.1143V37.0712C51.9107 40.475 50.0727 43.6202 47.089 45.3221L32.2248 53.8005C29.2411 55.5024 25.5651 55.5024 22.5814 53.8005L7.71723 45.3221C4.73354 43.6202 2.89551 40.475 2.89551 37.0712V20.1143C2.89551 16.7106 4.73354 13.5654 7.71724 11.8635L22.5814 3.38503Z"
        fill="#4000FF" />
    <path fill-rule="evenodd" clip-rule="evenodd"
        d="M27.0307 16.4788C25.5809 16.4788 24.4411 17.6176 24.4411 18.9796C24.4411 19.5637 23.9641 20.0372 23.3756 20.0372C22.7872 20.0372 22.3102 19.5637 22.3102 18.9796C22.3102 16.4111 24.4432 14.3636 27.0307 14.3636C29.6181 14.3636 31.7511 16.4111 31.7511 18.9796C31.7511 20.3393 31.1246 21.2555 30.4342 21.9738C30.1794 22.2389 29.8923 22.5004 29.6293 22.74L29.6287 22.7405C29.5567 22.8061 29.4864 22.8701 29.4191 22.9321C29.1709 23.1607 28.9394 23.3823 28.7262 23.6164C28.8713 23.8948 29.1738 24.303 29.6592 24.8366C30.6164 25.8885 32.0869 27.2156 33.7843 28.6465C35.4735 30.0704 37.3518 31.5676 39.1067 32.9577L39.8296 33.5299C41.3005 34.6939 42.6529 35.7641 43.6654 36.609C44.1158 36.9849 44.174 37.652 43.7953 38.0991C43.4167 38.5461 42.7446 38.6039 42.2942 38.228C41.3048 37.4024 39.9783 36.3526 38.504 35.1859L38.3696 35.0796H16.0009L12.4815 38.2145C12.0493 38.5995 11.3938 38.5533 11.0174 38.1113C10.641 37.6693 10.6862 36.9989 11.1184 36.614L23.9858 25.1521C24.418 24.7671 25.0734 24.8134 25.4499 25.2554C25.8263 25.6973 25.7811 26.3677 25.3489 26.7527L18.2884 33.0419H35.8058C34.6542 32.1196 33.4925 31.1754 32.405 30.2587C30.6966 28.8186 29.1351 27.4162 28.0779 26.2543C27.5563 25.6811 27.1061 25.1114 26.8331 24.5874C26.697 24.3261 26.5713 24.0134 26.5367 23.6756C26.4999 23.3157 26.5661 22.8859 26.8696 22.5165C27.2327 22.0746 27.6211 21.7027 27.9698 21.3816C28.0575 21.3007 28.141 21.2246 28.2209 21.1518L28.2214 21.1514L28.2224 21.1504C28.4749 20.9203 28.6912 20.7231 28.8924 20.5138C29.382 20.0043 29.6202 19.5851 29.6202 18.9796C29.6202 17.6176 28.4804 16.4788 27.0307 16.4788Z"
        fill="white" />
</svg>