<svg width="36" height="36" viewBox="0 0 36 36" fill="none" xmlns="http://www.w3.org/2000/svg">
    <path fill-rule="evenodd" clip-rule="evenodd"
        d="M13.7771 10.2929C14.1676 10.6834 14.1676 11.3166 13.7771 11.7071L8.41421 17.07H30.5C31.0523 17.07 31.5 17.5177 31.5 18.07C31.5 18.6223 31.0523 19.07 30.5 19.07H8.41421L13.7771 24.4329C14.1676 24.8234 14.1676 25.4566 13.7771 25.8471C13.3866 26.2376 12.7534 26.2376 12.3629 25.8471L5.29289 18.7771C5.10536 18.5896 5 18.3352 5 18.07C5 17.8048 5.10536 17.5504 5.29289 17.3629L12.3629 10.2929C12.7534 9.90237 13.3866 9.90237 13.7771 10.2929Z"
        fill="black" />
</svg>