<svg width="36" height="36" viewBox="0 0 36 36" fill="none" xmlns="http://www.w3.org/2000/svg">
    <path fill-rule="evenodd" clip-rule="evenodd"
        d="M27.1924 8.77808C26.8019 8.38756 26.1687 8.38756 25.7782 8.77808L18 16.5563L10.2218 8.77808C9.8313 8.38756 9.19814 8.38756 8.80761 8.77808C8.41709 9.1686 8.41709 9.80177 8.80761 10.1923L16.5858 17.9705L8.80761 25.7486C8.41709 26.1392 8.41709 26.7723 8.80761 27.1629C9.19814 27.5534 9.8313 27.5534 10.2218 27.1629L18 19.3847L25.7782 27.1629C26.1687 27.5534 26.8019 27.5534 27.1924 27.1629C27.5829 26.7723 27.5829 26.1392 27.1924 25.7486L19.4142 17.9705L27.1924 10.1923C27.5829 9.80177 27.5829 9.16861 27.1924 8.77808Z"
        fill="black" />
</svg>