<svg width="100" height="100" viewBox="0 0 100 100" fill="none" xmlns="http://www.w3.org/2000/svg">
    <path
        d="M50 0C77.6144 0 100 22.3858 100 50C100 77.6144 77.6144 100 50 100C40.5022 100 31.3858 97.3433 23.5045 92.41C20.2941 90.4006 17.3206 88.0317 14.6426 85.3533C11.9606 82.6711 9.58894 79.6922 7.57783 76.4761C2.65222 68.5989 0 59.49 0 50C0 48.4767 0.0682223 46.9617 0.203889 45.4572C0.4105 43.165 2.43594 41.475 4.72783 41.6811C7.01972 41.8878 8.71017 43.9133 8.50356 46.2056C8.39033 47.4611 8.33333 48.7267 8.33333 50C8.33333 57.9161 10.5404 65.4961 14.6435 72.0578C16.3202 74.7389 18.2982 77.2233 20.5355 79.4611C22.7693 81.695 25.2494 83.6711 27.926 85.3461C34.4913 89.4561 42.0772 91.6667 50 91.6667C73.0117 91.6667 91.6667 73.0117 91.6667 50C91.6667 26.9881 73.0117 8.33333 50 8.33333C36.6817 8.33333 24.4418 14.6267 16.6542 25.0109L27.8011 25.0116C30.1022 25.0116 31.9677 26.8771 31.9677 29.1783C31.9677 31.2877 30.4002 33.031 28.3664 33.3069L27.8011 33.3449H6.94444C4.835 33.3449 3.09172 31.7774 2.81583 29.7437L2.77778 29.1783V8.34494C2.77778 6.04378 4.64328 4.17828 6.94444 4.17828C9.05389 4.17828 10.7972 5.74583 11.0731 7.77956L11.1111 8.34494L11.1056 18.5749C20.4771 6.97794 34.646 0 50 0ZM45.8333 22.2222C47.9417 22.2222 49.6861 23.7907 49.9617 25.8237L50 26.3889V50H62.5C64.8 50 66.6667 51.8667 66.6667 54.1667C66.6667 56.275 65.0983 58.0194 63.065 58.295L62.5 58.3333H45.8333C43.725 58.3333 41.9806 56.765 41.705 54.7317L41.6667 54.1667V26.3889C41.6667 24.0889 43.5333 22.2222 45.8333 22.2222Z"
        fill="#EEEEEE" />
</svg>