<svg width="36" height="36" viewBox="0 0 36 36" fill="none" xmlns="http://www.w3.org/2000/svg">
    <path
        d="M18 6C24.6275 6 30 11.3726 30 18C30 24.6275 24.6275 30 18 30C15.7205 30 13.5326 29.3624 11.6411 28.1784C10.8706 27.6961 10.1569 27.1276 9.51421 26.4848C8.87053 25.8411 8.30135 25.1261 7.81868 24.3543C6.63653 22.4637 6 20.2776 6 18C6 17.6344 6.01637 17.2708 6.04893 16.9097C6.09852 16.3596 6.58463 15.954 7.13468 16.0035C7.68473 16.0531 8.09044 16.5392 8.04085 17.0893C8.01368 17.3907 8 17.6944 8 18C8 19.8999 8.52969 21.7191 9.51444 23.2939C9.91685 23.9373 10.3916 24.5336 10.9285 25.0707C11.4646 25.6068 12.0599 26.0811 12.7022 26.4831C14.2779 27.4695 16.0985 28 18 28C23.5228 28 28 23.5228 28 18C28 12.4771 23.5228 8 18 8C14.8036 8 11.866 9.51041 9.997 12.0026L12.6723 12.0028C13.2245 12.0028 13.6723 12.4505 13.6723 13.0028C13.6723 13.5091 13.296 13.9274 12.8079 13.9937L12.6723 14.0028H7.66667C7.1604 14.0028 6.74201 13.6266 6.6758 13.1385L6.66667 13.0028V8.00279C6.66667 7.45051 7.11439 7.00279 7.66667 7.00279C8.17293 7.00279 8.59132 7.379 8.65753 7.86709L8.66667 8.00279L8.66533 10.458C10.9145 7.67471 14.315 6 18 6ZM17 11.3333C17.506 11.3333 17.9247 11.7098 17.9908 12.1977L18 12.3333V18H21C21.552 18 22 18.448 22 19C22 19.506 21.6236 19.9247 21.1356 19.9908L21 20H17C16.494 20 16.0753 19.6236 16.0092 19.1356L16 19V12.3333C16 11.7813 16.448 11.3333 17 11.3333Z"
        fill="black" />
</svg>